<svg xmlns="http://www.w3.org/2000/svg" xmlns:xlink="http://www.w3.org/1999/xlink" width="39" height="40" viewBox="0 0 39 40"><defs><style>.a{fill:#a3a3a3;}.b,.f{fill:none;}.b{stroke:#4e4e4e;stroke-miterlimit:10;stroke-width:2px;}.c{clip-path:url(#a);}.d{fill:#404040;}.e{stroke:none;}</style><clipPath id="a"><path class="a" d="M4.59,12.741a.65.65,0,0,1,1.124-.653l.05.074a.588.588,0,0,0,.967-.074L6.792,12a.65.65,0,0,1,1.065.739,1.888,1.888,0,0,1-3.267,0ZM.652,10.589A.65.65,0,0,1,.291,9.4l.054-.041a3,3,0,0,0,.665-.891,8.6,8.6,0,0,0,.849-4.1,4.365,4.365,0,0,1,8.731,0,8.6,8.6,0,0,0,.85,4.1,2.82,2.82,0,0,0,.719.932l.077.06a.65.65,0,0,1-.438,1.13ZM3.159,4.365A9.86,9.86,0,0,1,2.151,9.089l-.114.2h8.375l-.113-.2A9.85,9.85,0,0,1,9.29,4.365a3.065,3.065,0,1,0-6.131,0Z"/></clipPath></defs><g class="b"><rect class="e" width="39" height="40" rx="19.5"/><rect class="f" x="1" y="1" width="37" height="38" rx="18.5"/></g><g transform="translate(12.743 13.15)"><path class="a" d="M4.59,12.741a.65.65,0,0,1,1.124-.653l.05.074a.588.588,0,0,0,.967-.074L6.792,12a.65.65,0,0,1,1.065.739,1.888,1.888,0,0,1-3.267,0ZM.652,10.589A.65.65,0,0,1,.291,9.4l.054-.041a3,3,0,0,0,.665-.891,8.6,8.6,0,0,0,.849-4.1,4.365,4.365,0,0,1,8.731,0,8.6,8.6,0,0,0,.85,4.1,2.82,2.82,0,0,0,.719.932l.077.06a.65.65,0,0,1-.438,1.13ZM3.159,4.365A9.86,9.86,0,0,1,2.151,9.089l-.114.2h8.375l-.113-.2A9.85,9.85,0,0,1,9.29,4.365a3.065,3.065,0,1,0-6.131,0Z"/><g class="c"><g transform="translate(-5.743 -5.15)"><rect class="d" width="24" height="24"/></g></g></g></svg>