<svg xmlns="http://www.w3.org/2000/svg" xmlns:xlink="http://www.w3.org/1999/xlink" width="14.334" height="14.334" viewBox="0 0 14.334 14.334"><defs><style>.a{fill:#4dbc48;}.b{clip-path:url(#a);}</style><clipPath id="a"><path class="a" d="M1.155,11.067A7.166,7.166,0,0,1,10.084.621a.5.5,0,0,1-.407.914,6.167,6.167,0,1,0,3.651,5.883l.005-.247V6.557a.5.5,0,0,1,.992-.09l.008.09v.614a7.166,7.166,0,0,1-13.179,3.9ZM6.882,8.923l-.069-.058-2-2A.5.5,0,0,1,5.451,6.1l.069.058L7.166,7.8l6.314-6.318a.5.5,0,0,1,.766.637l-.058.069L7.52,8.864a.5.5,0,0,1-.638.058Z" transform="translate(0.5 1.162)"/></clipPath></defs><g transform="translate(-0.5 -1.162)"><path class="a" d="M1.155,11.067A7.166,7.166,0,0,1,10.084.621a.5.5,0,0,1-.407.914,6.167,6.167,0,1,0,3.651,5.883l.005-.247V6.557a.5.5,0,0,1,.992-.09l.008.09v.614a7.166,7.166,0,0,1-13.179,3.9ZM6.882,8.923l-.069-.058-2-2A.5.5,0,0,1,5.451,6.1l.069.058L7.166,7.8l6.314-6.318a.5.5,0,0,1,.766.637l-.058.069L7.52,8.864a.5.5,0,0,1-.638.058Z" transform="translate(0.5 1.162)"/><g class="b"><g transform="translate(-0.5 0.163)"><path class="a" d="M0,.08C0,.036,2.388,0,5.333,0h5.333C13.612,0,16,.036,16,.08V15.92c0,.044-2.388.08-5.333.08H5.333C2.388,16,0,15.964,0,15.92V.08Z" transform="translate(16) rotate(90)"/></g></g></g></svg>