<svg xmlns="http://www.w3.org/2000/svg" xmlns:xlink="http://www.w3.org/1999/xlink" width="13" height="14.333" viewBox="0 0 13 14.333"><defs><style>.a{clip-path:url(#a);}.b{fill:#f0f0f0;}</style><clipPath id="a"><path d="M3.166,14.333A1.843,1.843,0,0,1,1.339,12.65l-.006-.15V3.667H.5a.5.5,0,1,1,0-1H3.333V1.833A1.843,1.843,0,0,1,5.016.006L5.166,0H7.833A1.842,1.842,0,0,1,9.661,1.683l.005.15v.833H12.5a.5.5,0,0,1,0,1h-.834V12.5a1.841,1.841,0,0,1-1.682,1.827l-.151.006ZM2.333,12.5a.837.837,0,0,0,.729.827l.1.006H9.833a.833.833,0,0,0,.827-.729l.006-.1V3.667H2.333ZM8.666,2.667V1.833a.834.834,0,0,0-.729-.827L7.833,1H5.166a.834.834,0,0,0-.826.729l-.007.1v.833Z" transform="translate(1.5 0.5)"/></clipPath></defs><g transform="translate(-1.5 -0.5)"><path d="M3.166,14.333A1.843,1.843,0,0,1,1.339,12.65l-.006-.15V3.667H.5a.5.5,0,1,1,0-1H3.333V1.833A1.843,1.843,0,0,1,5.016.006L5.166,0H7.833A1.842,1.842,0,0,1,9.661,1.683l.005.15v.833H12.5a.5.5,0,0,1,0,1h-.834V12.5a1.841,1.841,0,0,1-1.682,1.827l-.151.006ZM2.333,12.5a.837.837,0,0,0,.729.827l.1.006H9.833a.833.833,0,0,0,.827-.729l.006-.1V3.667H2.333ZM8.666,2.667V1.833a.834.834,0,0,0-.729-.827L7.833,1H5.166a.834.834,0,0,0-.826.729l-.007.1v.833Z" transform="translate(1.5 0.5)"/><g class="a"><rect class="b" width="16" height="16"/></g></g></svg>