<svg xmlns="http://www.w3.org/2000/svg" xmlns:xlink="http://www.w3.org/1999/xlink" width="14" height="14" viewBox="0 0 14 14"><defs><style>.a{fill:#f37021;}.b{clip-path:url(#a);}</style><clipPath id="a"><path class="a" d="M.67,14a.673.673,0,0,1-.65-.836l.9-3.585a.666.666,0,0,1,.177-.312L9.6.754A2.572,2.572,0,0,1,13.069.6l.173.158L13.4.927a2.562,2.562,0,0,1-.158,3.466L4.731,12.906a.669.669,0,0,1-.312.177l-3.583.9A.686.686,0,0,1,.67,14ZM11.423,1.345a1.218,1.218,0,0,0-.868.36l-8.38,8.382L1.6,12.4l2.316-.579,8.379-8.382a1.229,1.229,0,0,0-.868-2.1Z" transform="translate(0 0)"/></clipPath></defs><g transform="translate(-985.082 -793)"><path class="a" d="M.841,0A.841.841,0,1,1,0,.841.841.841,0,0,1,.841,0Z" transform="translate(994.729 804.984)"/><path class="a" d="M.841,0A.841.841,0,1,1,0,.841.841.841,0,0,1,.841,0Z" transform="translate(992.073 804.984)"/><path class="a" d="M.841,0A.841.841,0,1,1,0,.841.841.841,0,0,1,.841,0Z" transform="translate(997.399 804.984)"/><g transform="translate(985.082 793)"><g transform="translate(0 0)"><path class="a" d="M.67,14a.673.673,0,0,1-.649-.836l.9-3.585a.675.675,0,0,1,.177-.312L9.6.754A2.572,2.572,0,0,1,13.069.6l.173.158L13.4.927a2.574,2.574,0,0,1-.158,3.466l-8.51,8.513a.675.675,0,0,1-.312.177l-3.584.9A.686.686,0,0,1,.67,14ZM11.461,1.119a1.453,1.453,0,0,0-1.033.427L1.761,10.124,1,13.06l2.757-.688,8.737-8.765a1.458,1.458,0,0,0-1.033-2.488Z" transform="translate(0 0)"/></g></g></g></svg>