<svg xmlns="http://www.w3.org/2000/svg" xmlns:xlink="http://www.w3.org/1999/xlink" width="16.2" height="16.196" viewBox="0 0 16.2 16.196"><defs><style>.a{clip-path:url(#a);}.b{fill:#f0f0f0;}</style><clipPath id="a"><path d="M2.06,16.2A2.06,2.06,0,0,1,0,14.136V3.649a2.06,2.06,0,0,1,2.06-2.06H7.3a.562.562,0,1,1,0,1.123H2.06a.937.937,0,0,0-.936.936V14.136a.937.937,0,0,0,.936.936H12.547a.936.936,0,0,0,.936-.936V8.893a.562.562,0,1,1,1.123,0v5.243a2.06,2.06,0,0,1-2.06,2.06Zm2.552-4.712a.556.556,0,0,1-.1-.48l.749-3a.558.558,0,0,1,.148-.261L12.524.63A2.132,2.132,0,0,1,14.044,0a2.156,2.156,0,0,1,1.377.5l.145.132L15.7.775a2.141,2.141,0,0,1-.132,2.9L8.45,10.788a.562.562,0,0,1-.261.148l-3,.749a.584.584,0,0,1-.139.017A.558.558,0,0,1,4.612,11.484ZM13.319,1.425,6.312,8.431l-.483,1.937,1.937-.484,7.006-7.006a1.027,1.027,0,1,0-1.452-1.452Z" transform="translate(0 1.086)"/></clipPath></defs><g transform="translate(0 -1)"><path d="M2.06,16.2A2.06,2.06,0,0,1,0,14.136V3.649a2.06,2.06,0,0,1,2.06-2.06H7.3a.562.562,0,1,1,0,1.123H2.06a.937.937,0,0,0-.936.936V14.136a.937.937,0,0,0,.936.936H12.547a.936.936,0,0,0,.936-.936V8.893a.562.562,0,1,1,1.123,0v5.243a2.06,2.06,0,0,1-2.06,2.06Zm2.552-4.712a.556.556,0,0,1-.1-.48l.749-3a.558.558,0,0,1,.148-.261L12.524.63A2.132,2.132,0,0,1,14.044,0a2.156,2.156,0,0,1,1.377.5l.145.132L15.7.775a2.141,2.141,0,0,1-.132,2.9L8.45,10.788a.562.562,0,0,1-.261.148l-3,.749a.584.584,0,0,1-.139.017A.558.558,0,0,1,4.612,11.484ZM13.319,1.425,6.312,8.431l-.483,1.937,1.937-.484,7.006-7.006a1.027,1.027,0,1,0-1.452-1.452Z" transform="translate(0 1)"/><g class="a" transform="translate(0 -0.086)"><g transform="translate(0 1.086)"><rect class="b" width="16.2" height="16.2"/></g></g></g></svg>