<svg xmlns="http://www.w3.org/2000/svg" xmlns:xlink="http://www.w3.org/1999/xlink" width="14.418" height="14.414" viewBox="0 0 14.418 14.414"><defs><style>.a{clip-path:url(#a);}.b{fill:#f0f0f0;}</style><clipPath id="a"><path d="M1.833,14.414A1.833,1.833,0,0,1,0,12.581V3.247A1.833,1.833,0,0,1,1.833,1.414H6.5a.5.5,0,1,1,0,1H1.833A.834.834,0,0,0,1,3.247v9.334a.834.834,0,0,0,.833.833h9.333A.833.833,0,0,0,12,12.581V7.915a.5.5,0,1,1,1,0v4.667a1.833,1.833,0,0,1-1.833,1.833ZM4.1,10.22a.5.5,0,0,1-.09-.427l.667-2.667a.5.5,0,0,1,.131-.232L11.147.561A1.9,1.9,0,0,1,12.5,0a1.919,1.919,0,0,1,1.226.443l.129.118.118.129a1.905,1.905,0,0,1-.118,2.578L7.52,9.6a.5.5,0,0,1-.232.131L4.622,10.4a.52.52,0,0,1-.123.015A.5.5,0,0,1,4.1,10.22Zm7.749-8.952L5.618,7.5l-.43,1.723L6.911,8.8l6.235-6.235a.914.914,0,1,0-1.292-1.292Z" transform="translate(0.5 1.086)"/></clipPath></defs><g transform="translate(-0.5 -1.086)"><path d="M1.833,14.414A1.833,1.833,0,0,1,0,12.581V3.247A1.833,1.833,0,0,1,1.833,1.414H6.5a.5.5,0,1,1,0,1H1.833A.834.834,0,0,0,1,3.247v9.334a.834.834,0,0,0,.833.833h9.333A.833.833,0,0,0,12,12.581V7.915a.5.5,0,1,1,1,0v4.667a1.833,1.833,0,0,1-1.833,1.833ZM4.1,10.22a.5.5,0,0,1-.09-.427l.667-2.667a.5.5,0,0,1,.131-.232L11.147.561A1.9,1.9,0,0,1,12.5,0a1.919,1.919,0,0,1,1.226.443l.129.118.118.129a1.905,1.905,0,0,1-.118,2.578L7.52,9.6a.5.5,0,0,1-.232.131L4.622,10.4a.52.52,0,0,1-.123.015A.5.5,0,0,1,4.1,10.22Zm7.749-8.952L5.618,7.5l-.43,1.723L6.911,8.8l6.235-6.235a.914.914,0,1,0-1.292-1.292Z" transform="translate(0.5 1.086)"/><g class="a"><rect class="b" width="16" height="16"/></g></g></svg>