<svg xmlns="http://www.w3.org/2000/svg" xmlns:xlink="http://www.w3.org/1999/xlink" width="30" height="26" viewBox="0 0 30 26"><defs><style>.a{fill:#f0f0f0;}.b{fill:none;}.c{clip-path:url(#a);}</style><clipPath id="a"><path class="a" d="M26.346,26H3.642a3.7,3.7,0,0,1-3.16-1.841A3.645,3.645,0,0,1,.5,20.515L11.849,1.756a3.7,3.7,0,0,1,6.3,0L29.507,20.529a3.629,3.629,0,0,1,.01,3.63A3.712,3.712,0,0,1,26.346,26ZM15.013,18.7l-.13.007A.994.994,0,0,0,15,20.695l.13-.006a.995.995,0,0,0-.117-1.984ZM15,8.095a1,1,0,0,0-1,.995v5.306l.006.116a1.005,1.005,0,0,0,2-.116V9.089L16,8.973A1,1,0,0,0,15,8.095Z"/></clipPath></defs><rect class="b" width="30" height="26"/><path class="a" d="M26.346,26H3.642a3.7,3.7,0,0,1-3.16-1.841A3.645,3.645,0,0,1,.5,20.515L11.849,1.756a3.7,3.7,0,0,1,6.3,0L29.507,20.529a3.629,3.629,0,0,1,.01,3.63A3.712,3.712,0,0,1,26.346,26ZM15.013,18.7l-.13.007A.994.994,0,0,0,15,20.695l.13-.006a.995.995,0,0,0-.117-1.984ZM15,8.095a1,1,0,0,0-1,.995v5.306l.006.116a1.005,1.005,0,0,0,2-.116V9.089L16,8.973A1,1,0,0,0,15,8.095Z"/></svg>