<svg xmlns="http://www.w3.org/2000/svg" xmlns:xlink="http://www.w3.org/1999/xlink" width="16" height="15.27" viewBox="0 0 16 15.27"><defs><style>.a{clip-path:url(#a);}.b{fill:#fff;}</style><clipPath id="a"><path d="M12.6,15.27a.546.546,0,0,1-.177-.03l-.082-.036L8,12.922,3.661,15.2a.553.553,0,0,1-.26.065A.564.564,0,0,1,3,15.1a.547.547,0,0,1-.159-.395l.008-.089L3.68,9.785.17,6.368a.558.558,0,0,1,.214-.93l.094-.022,4.852-.71L7.5.311a.559.559,0,0,1,1,0l2.17,4.394,4.851.71a.559.559,0,0,1,.373.88l-.063.072L12.32,9.785l.829,4.832a.545.545,0,0,1-.121.451A.569.569,0,0,1,12.6,15.27ZM8,11.734a.572.572,0,0,1,.159.023l.1.041,3.6,1.892-.686-4a.551.551,0,0,1,.09-.411l.07-.083,2.91-2.835-4.023-.589a.558.558,0,0,1-.363-.213L9.8,5.462,8,1.819,6.2,5.462a.557.557,0,0,1-.42.305l-4.024.589L4.668,9.191a.551.551,0,0,1,.169.386l-.008.108-.687,4L7.74,11.8A.559.559,0,0,1,8,11.734Z" transform="translate(0 0)"/></clipPath></defs><g transform="translate(-248 -34)"><g transform="translate(248 34)"><g transform="translate(0 0)"><path d="M12.6,15.27a.546.546,0,0,1-.177-.03l-.082-.036L8,12.922,3.661,15.2a.553.553,0,0,1-.26.065A.564.564,0,0,1,3,15.1a.547.547,0,0,1-.159-.395l.008-.089L3.68,9.785.17,6.368a.558.558,0,0,1,.214-.93l.094-.022,4.852-.71L7.5.311a.559.559,0,0,1,1,0l2.17,4.394,4.851.71a.559.559,0,0,1,.373.88l-.063.072L12.32,9.785l.829,4.832a.545.545,0,0,1-.121.451A.569.569,0,0,1,12.6,15.27ZM8,11.734a.572.572,0,0,1,.159.023l.1.041,3.6,1.892-.686-4a.551.551,0,0,1,.09-.411l.07-.083,2.91-2.835-4.023-.589a.558.558,0,0,1-.363-.213L9.8,5.462,8,1.819,6.2,5.462a.557.557,0,0,1-.42.305l-4.024.589L4.668,9.191a.551.551,0,0,1,.169.386l-.008.108-.687,4L7.74,11.8A.559.559,0,0,1,8,11.734Z" transform="translate(0 0)"/><g class="a"><g transform="translate(-0.557 -1.675)"><rect class="b" width="17.859" height="17.859"/></g></g></g></g></g></svg>