<svg xmlns="http://www.w3.org/2000/svg" xmlns:xlink="http://www.w3.org/1999/xlink" width="32" height="32" viewBox="0 0 32 32"><defs><style>.a{clip-path:url(#a);}.b{fill:#f0f0f0;}</style><clipPath id="a"><path d="M4.2,24.468A14.333,14.333,0,1,1,24.468,4.2,14.333,14.333,0,1,1,4.2,24.468ZM5.612,5.612A12.333,12.333,0,1,0,23.054,23.054,12.333,12.333,0,1,0,5.612,5.612Zm7.721,14.054V14.333a1,1,0,1,1,2,0v5.333a1,1,0,1,1-2,0Zm1-9.667a1,1,0,1,1,0-2l.13.006A1,1,0,0,1,14.347,10Z" transform="translate(2 2)"/></clipPath></defs><path d="M4.2,24.468A14.333,14.333,0,1,1,24.468,4.2,14.333,14.333,0,1,1,4.2,24.468ZM5.612,5.612A12.333,12.333,0,1,0,23.054,23.054,12.333,12.333,0,1,0,5.612,5.612Zm7.721,14.054V14.333a1,1,0,1,1,2,0v5.333a1,1,0,1,1-2,0Zm1-9.667a1,1,0,1,1,0-2l.13.006A1,1,0,0,1,14.347,10Z" transform="translate(2 2)"/><g class="a"><rect class="b" width="32" height="32"/></g></svg>