<svg xmlns="http://www.w3.org/2000/svg" width="16" height="16" viewBox="0 0 16 16"><defs><style>.a,.b{fill:none;}.a{stroke-miterlimit:10;}.c,.d{stroke:none;}.d{fill:#d6b133;}</style></defs><g transform="translate(-636 -264)"><g transform="translate(636 264)"><g class="a" transform="translate(1 1)"><path class="c" d="M11.125,0H3V4.375L5.625,7,3,9.625V14h8.125V9.625L8.5,7l2.625-2.625Z"/><path class="d" d="M 4 1 L 4 3.960780143737793 L 6.332109928131104 6.292890071868896 L 7.039209842681885 7 L 6.332109928131104 7.707109928131104 L 4 10.03921985626221 L 4 13 L 10.125 13 L 10.125 10.03921985626221 L 7.792890071868896 7.707109928131104 L 7.085790157318115 7 L 7.792890071868896 6.292890071868896 L 10.125 3.960780143737793 L 10.125 1 L 4 1 M 3 0 L 11.125 0 L 11.125 4.375 L 8.5 7 L 11.125 9.625 L 11.125 14 L 3 14 L 3 9.625 L 5.625 7 L 3 4.375 L 3 0 Z"/></g><rect class="b" width="16" height="16"/></g></g></svg>