<svg xmlns="http://www.w3.org/2000/svg" xmlns:xlink="http://www.w3.org/1999/xlink" width="14" height="14" viewBox="0 0 14 14"><defs><style>.a,.b{fill:#fec62d;}.b{clip-rule:evenodd;}.c{clip-path:url(#a);}.d{clip-path:url(#b);}.e{clip-path:url(#c);}.f{clip-path:url(#d);}.g{fill:none;}</style><clipPath id="a"><path class="a" d="M219-389h1v-4h-1Z"/></clipPath><clipPath id="b"><path class="a" d="M223-389h1v-4h-1Z"/></clipPath><clipPath id="c"><path class="b" d="M217-400a6,6,0,0,1,6,6,6,6,0,0,1-6,6,6,6,0,0,1-6-6A6,6,0,0,1,217-400Zm0,1.091A4.909,4.909,0,0,0,212.091-394,4.909,4.909,0,0,0,217-389.091,4.909,4.909,0,0,0,221.909-394,4.909,4.909,0,0,0,217-398.909Z"/></clipPath><clipPath id="d"><path class="a" d="M-37-387.091H219.364V-878H-37Z" transform="translate(37 878)"/></clipPath></defs><g transform="translate(-681 -196)"><g class="c" transform="translate(467.5 594)"><path class="a" d="M214-398h6v9h-6Z" transform="translate(2.5 2.5)"/></g><g class="d" transform="translate(465.5 594)"><path class="a" d="M218-398h6v9h-6Z" transform="translate(2.5 2.5)"/></g><g class="e" transform="translate(471 597)"><g class="f" transform="translate(75.727 -660.727)"><path class="a" d="M206-405h17.455v17.455H206Z" transform="translate(-73.455 663)"/></g></g><rect class="g" width="14" height="14" transform="translate(681 196)"/></g></svg>