<svg xmlns="http://www.w3.org/2000/svg" xmlns:xlink="http://www.w3.org/1999/xlink" width="16.001" height="15.933" viewBox="0 0 16.001 15.933"><defs><style>.a{fill:#a3a3a3;}.b{clip-path:url(#a);}.c{fill:silver;}</style><clipPath id="a"><path class="a" d="M.248,15.915A.4.4,0,0,1,0,15.531a.705.705,0,0,1,.2-.419c.144-.2,1.458-1.86,1.458-1.86L5.78,8.02C4.269,6.5,3,5.227,3,5.227a5.862,5.862,0,0,1,3.591-.256c1.274-1.8,3-4.215,3-4.215S10.1,0,10.765,0a.858.858,0,0,1,.459.15c.2.17.606.607.606.607l2.589,2.617,1.324,1.348a.988.988,0,0,1,.243.428,1.022,1.022,0,0,1-.082.6,1.669,1.669,0,0,1-.424.525c-.2.148-1.973,1.346-1.973,1.346l-2.488,1.7a6.2,6.2,0,0,1,.158,1.879,6.082,6.082,0,0,1-.411,1.8c0,.01-1.334-1.318-2.891-2.879l-3.1,2.473L.707,15.827a.416.416,0,0,1-.3.106A.712.712,0,0,1,.248,15.915Z"/></clipPath></defs><path class="a" d="M.248,15.915A.4.4,0,0,1,0,15.531a.705.705,0,0,1,.2-.419c.144-.2,1.458-1.86,1.458-1.86L5.78,8.02C4.269,6.5,3,5.227,3,5.227a5.862,5.862,0,0,1,3.591-.256c1.274-1.8,3-4.215,3-4.215S10.1,0,10.765,0a.858.858,0,0,1,.459.15c.2.17.606.607.606.607l2.589,2.617,1.324,1.348a.988.988,0,0,1,.243.428,1.022,1.022,0,0,1-.082.6,1.669,1.669,0,0,1-.424.525c-.2.148-1.973,1.346-1.973,1.346l-2.488,1.7a6.2,6.2,0,0,1,.158,1.879,6.082,6.082,0,0,1-.411,1.8c0,.01-1.334-1.318-2.891-2.879l-3.1,2.473L.707,15.827a.416.416,0,0,1-.3.106A.712.712,0,0,1,.248,15.915Z"/><g class="b"><g transform="translate(-4 -4)"><rect class="c" width="24" height="24"/></g></g></svg>