<svg xmlns="http://www.w3.org/2000/svg" xmlns:xlink="http://www.w3.org/1999/xlink" width="32" height="32" viewBox="0 0 32 32"><defs><style>.a{fill:none;}.b{clip-path:url(#a);}.c{fill:#f0f0f0;}</style><clipPath id="a"><path d="M1.833,15A1.833,1.833,0,0,1,.006,13.317L0,13.167V1.833A1.833,1.833,0,0,1,1.683.006L1.833,0H13.167a1.834,1.834,0,0,1,1.827,1.683l.006.15V13.167a1.834,1.834,0,0,1-1.683,1.827l-.15.006Z" transform="translate(0.5 0.5)"/></clipPath></defs><g transform="translate(-1836 -222)"><rect class="a" width="32" height="32" transform="translate(1836 222)"/><g transform="translate(1844 230)"><path d="M1.833,15A1.833,1.833,0,0,1,.006,13.317L0,13.167V1.833A1.833,1.833,0,0,1,1.683.006L1.833,0H13.167a1.834,1.834,0,0,1,1.827,1.683l.006.15V13.167a1.834,1.834,0,0,1-1.683,1.827l-.15.006Z" transform="translate(0.5 0.5)"/><g class="b"><rect class="c" width="16" height="16"/></g></g></g></svg>