<svg xmlns="http://www.w3.org/2000/svg" xmlns:xlink="http://www.w3.org/1999/xlink" width="14" height="14" viewBox="0 0 14 14"><defs><style>.a,.b{fill:#c746a1;}.a{clip-rule:evenodd;}.c{clip-path:url(#a);}.d{clip-path:url(#b);}.e{clip-path:url(#c);}.f{clip-path:url(#d);}.g{fill:none;}</style><clipPath id="a"><path class="a" d="M15-314a6,6,0,0,1,6,6,6,6,0,0,1-6,6,6,6,0,0,1-6-6A6,6,0,0,1,15-314Zm0,1.091A4.909,4.909,0,0,0,10.091-308,4.909,4.909,0,0,0,15-303.091,4.909,4.909,0,0,0,19.909-308,4.909,4.909,0,0,0,15-312.909Z"/></clipPath><clipPath id="b"><path class="b" d="M-37-387.091H219.364V-878H-37Z" transform="translate(37 878)"/></clipPath><clipPath id="c"><path class="a" d="M12-310.229l.771-.771,7.729,7.729-.771.771Z" transform="translate(0)"/></clipPath><clipPath id="d"><path class="b" d="M-37-387.36H219.223V-878H-37Z" transform="translate(37 878)"/></clipPath></defs><g transform="translate(-2.75 -116.75)"><g transform="translate(-17.25 -16.25)"><g class="c" transform="translate(12 448)"><g class="d" transform="translate(-16.091 -621.636)"><path class="b" d="M4-319H21.455v17.455H4Z" transform="translate(18.364 623.909)"/></g></g><g class="e" transform="translate(11 447)"><g class="f" transform="translate(-14.713 -620.103)"><path class="b" d="M4.929-313.445l4.626-4.626,11.584,11.584-4.626,4.626Z" transform="translate(17.929 623.319)"/></g></g></g><g transform="translate(2.75 116.75)"><rect class="g" width="14" height="14"/></g></g></svg>