<svg xmlns="http://www.w3.org/2000/svg" xmlns:xlink="http://www.w3.org/1999/xlink" width="24" height="24" viewBox="0 0 24 24"><defs><style>.a{opacity:0.75;}.b{fill:rgba(39,39,39,0.1);}.c{clip-path:url(#a);}.d{fill:#f0f0f0;}</style><clipPath id="a"><path d="M14,1.75A1.75,1.75,0,1,1,15.75,3.5,1.75,1.75,0,0,1,14,1.75Zm-7,0A1.75,1.75,0,1,1,8.75,3.5,1.75,1.75,0,0,1,7,1.75Zm-7,0A1.75,1.75,0,1,1,1.75,3.5,1.75,1.75,0,0,1,0,1.75Z" transform="translate(3.25 10.25)"/></clipPath></defs><g transform="translate(334 3044)"><g class="a" transform="translate(-334 -3044)"><rect class="b" width="24" height="24" rx="3"/><g transform="translate(3.25 10.25)"><g transform="translate(-3.25 -10.25)"><path d="M14,1.75A1.75,1.75,0,1,1,15.75,3.5,1.75,1.75,0,0,1,14,1.75Zm-7,0A1.75,1.75,0,1,1,8.75,3.5,1.75,1.75,0,0,1,7,1.75Zm-7,0A1.75,1.75,0,1,1,1.75,3.5,1.75,1.75,0,0,1,0,1.75Z" transform="translate(3.25 10.25)"/><g class="c"><rect class="d" width="24" height="24"/></g></g></g></g></g></svg>