<svg xmlns="http://www.w3.org/2000/svg" xmlns:xlink="http://www.w3.org/1999/xlink" width="17.014" height="17.17" viewBox="0 0 17.014 17.17"><defs><style>.a{fill:#a3a3a3;}.b{clip-path:url(#a);}.c{fill:silver;}</style><clipPath id="a"><path class="a" d="M10.825,16.951,6.081,12.2l-1.887,1.5L1.485,15.864a.317.317,0,0,1-.306.058.271.271,0,0,1-.166-.256.474.474,0,0,1,.136-.28c.1-.13.972-1.239.972-1.239l2.6-3.3-4.5-4.5A.748.748,0,1,1,1.278,5.284l10.6,10.61a.749.749,0,0,1,0,1.057h0a.749.749,0,0,1-1.057,0ZM4.014,5.227A5.858,5.858,0,0,1,7.6,4.972c1.274-1.8,3-4.215,3-4.215S11.118,0,11.777,0a.853.853,0,0,1,.459.15c.2.17.607.607.607.607l2.588,2.617,1.324,1.348A1,1,0,0,1,17,5.15a1.022,1.022,0,0,1-.082.6,1.682,1.682,0,0,1-.424.525c-.2.148-1.973,1.346-1.973,1.346l-2.488,1.7a6.179,6.179,0,0,1,.158,1.879,6.084,6.084,0,0,1-.412,1.8h0C11.744,13,4.014,5.227,4.014,5.227Zm-3.8.054h0Z" transform="translate(3 4)"/></clipPath></defs><g transform="translate(-3 -4)"><path class="a" d="M10.825,16.951,6.081,12.2l-1.887,1.5L1.485,15.864a.317.317,0,0,1-.306.058.271.271,0,0,1-.166-.256.474.474,0,0,1,.136-.28c.1-.13.972-1.239.972-1.239l2.6-3.3-4.5-4.5A.748.748,0,1,1,1.278,5.284l10.6,10.61a.749.749,0,0,1,0,1.057h0a.749.749,0,0,1-1.057,0ZM4.014,5.227A5.858,5.858,0,0,1,7.6,4.972c1.274-1.8,3-4.215,3-4.215S11.118,0,11.777,0a.853.853,0,0,1,.459.15c.2.17.607.607.607.607l2.588,2.617,1.324,1.348A1,1,0,0,1,17,5.15a1.022,1.022,0,0,1-.082.6,1.682,1.682,0,0,1-.424.525c-.2.148-1.973,1.346-1.973,1.346l-2.488,1.7a6.179,6.179,0,0,1,.158,1.879,6.084,6.084,0,0,1-.412,1.8h0C11.744,13,4.014,5.227,4.014,5.227Zm-3.8.054h0Z" transform="translate(3 4)"/><g class="b"><rect class="c" width="24" height="24"/></g></g></svg>