<?xml version="1.0" encoding="UTF-8"?>
<svg width="7px" height="11px" viewBox="0 0 7 11" version="1.1" xmlns="http://www.w3.org/2000/svg" xmlns:xlink="http://www.w3.org/1999/xlink">
    <title>C534F814-4193-4EA5-B4C6-CCDF4D0CA446@2x</title>
    <g id="Collections" stroke="none" stroke-width="1" fill="none" fill-rule="evenodd">
        <g id="Rich-content-palette" transform="translate(-330.000000, -165.000000)">
            <g id="icons/palette/underline" transform="translate(330.000000, 165.000000)">
                <path d="M3.50596252,8 C4.59511641,8 5.44974446,7.73071529 6.06984668,7.19214586 C6.68994889,6.65357644 7,5.83076204 7,4.72370266 L7,0 L5.60477002,0 L5.60477002,4.79102384 C5.60477002,5.54651706 5.41595684,6.09069659 5.03833049,6.42356241 C4.66070415,6.75642824 4.14991482,6.92286115 3.50596252,6.92286115 C3.18001136,6.92286115 2.88784781,6.88172043 2.62947189,6.79943899 C2.37109597,6.71715755 2.15048268,6.58999532 1.96763203,6.41795231 C1.78478137,6.2459093 1.64366837,6.02524544 1.54429302,5.75596073 C1.44491766,5.48667602 1.39522998,5.16503039 1.39522998,4.79102384 L1.39522998,0 L0,0 L0,4.72370266 C0,5.83076204 0.304088586,6.65357644 0.912265758,7.19214586 C1.52044293,7.73071529 2.38500852,8 3.50596252,8 Z" id="U" fill="#C7C7C7" fill-rule="nonzero"></path>
                <rect id="Rectangle" fill="#D8D8D8" x="0" y="9.05127768" width="7" height="1"></rect>
            </g>
        </g>
    </g>
</svg>