<?xml version="1.0" encoding="UTF-8"?>
<svg width="8px" height="10px" viewBox="0 0 8 10" version="1.1" xmlns="http://www.w3.org/2000/svg" xmlns:xlink="http://www.w3.org/1999/xlink">
    <title>97C68192-550E-4531-9637-ED0BDC3F681B@2x</title>
    <g id="Collections" stroke="none" stroke-width="1" fill="none" fill-rule="evenodd">
        <g id="Rich-content-palette" transform="translate(-271.000000, -165.000000)" fill="#C7C7C7" fill-rule="nonzero">
            <g id="icons/palette/bold" transform="translate(271.000000, 165.000000)">
                <path d="M4.50557621,10 C5.67534077,10 6.55018587,9.75952381 7.13011152,9.27857143 C7.71003717,8.79761905 8,8.08571429 8,7.14285714 C8,6.88571429 7.96530359,6.63095238 7.89591078,6.37857143 C7.82651797,6.12619048 7.72242875,5.89285714 7.58364312,5.67857143 C7.4448575,5.46428571 7.26394052,5.28095238 7.04089219,5.12857143 C6.81784387,4.97619048 6.55762082,4.86666667 6.26022305,4.8 C6.71623296,4.62857143 7.0755886,4.3547619 7.33828996,3.97857143 C7.60099133,3.60238095 7.73234201,3.14761905 7.73234201,2.61428571 C7.73234201,2.22380952 7.67534077,1.86904762 7.56133829,1.55 C7.44733581,1.23095238 7.26641884,0.957142857 7.01858736,0.728571429 C6.77075589,0.5 6.45105328,0.321428571 6.05947955,0.192857143 C5.66790582,0.0642857143 5.19950434,0 4.65427509,0 L4.65427509,0 L0,0 L0,10 L4.50557621,10 Z M4.41635688,4.25714286 L1.6802974,4.25714286 L1.6802974,1.31428571 L4.47583643,1.31428571 C4.96158612,1.31428571 5.34324659,1.43095238 5.62081784,1.66428571 C5.8983891,1.89761905 6.03717472,2.26666667 6.03717472,2.77142857 C6.03717472,3.18095238 5.91078067,3.53095238 5.65799257,3.82142857 C5.40520446,4.11190476 4.9913259,4.25714286 4.41635688,4.25714286 L4.41635688,4.25714286 Z M4.43122677,8.7 L1.6802974,8.7 L1.6802974,5.58571429 L4.49070632,5.58571429 C5.12515489,5.58571429 5.58364312,5.71666667 5.866171,5.97857143 C6.14869888,6.24047619 6.28996283,6.60952381 6.28996283,7.08571429 C6.28996283,8.16190476 5.67038414,8.7 4.43122677,8.7 L4.43122677,8.7 Z" id="B"></path>
            </g>
        </g>
    </g>
</svg>