<?xml version="1.0" encoding="UTF-8"?>
<svg width="20px" height="20px" viewBox="0 0 20 20" version="1.1" xmlns="http://www.w3.org/2000/svg" xmlns:xlink="http://www.w3.org/1999/xlink">
    <title>4CE06FC5-59F3-4D1F-BD8F-A89F990B07B8@2x</title>
    <g id="Collections" stroke="none" stroke-width="1" fill="none" fill-rule="evenodd">
        <g id="Rich-content-palette" transform="translate(-264.000000, -198.000000)" fill="#E0E0E0" fill-rule="nonzero">
            <g id="icons/palette/experionPoint" transform="translate(264.000000, 198.000000)">
                <path d="M11.1785113,0.833333333 L1.1785113,10.8333333 L9.16666667,18.8214887 L19.1666667,8.8214887 L19.1666667,0.833333333 L11.1785113,0.833333333 Z M10.8333333,-2.96059473e-15 L20,-2.96059473e-15 L20,9.16666667 L9.16666667,20 L0,10.8333333 L10.8333333,-2.96059473e-15 Z M15,5.83333333 C15.4602373,5.83333333 15.8333333,5.46023729 15.8333333,5 C15.8333333,4.53976271 15.4602373,4.16666667 15,4.16666667 C14.5397627,4.16666667 14.1666667,4.53976271 14.1666667,5 C14.1666667,5.46023729 14.5397627,5.83333333 15,5.83333333 Z M15,6.66666667 C14.0795254,6.66666667 13.3333333,5.92047458 13.3333333,5 C13.3333333,4.07952542 14.0795254,3.33333333 15,3.33333333 C15.9204746,3.33333333 16.6666667,4.07952542 16.6666667,5 C16.6666667,5.92047458 15.9204746,6.66666667 15,6.66666667 Z" id="Combined-Shape"></path>
            </g>
        </g>
    </g>
</svg>