<?xml version="1.0" encoding="UTF-8"?>
<svg width="24px" height="24px" viewBox="0 0 24 24" version="1.1" xmlns="http://www.w3.org/2000/svg" xmlns:xlink="http://www.w3.org/1999/xlink">
    <!-- Generator: Sketch 63.1 (92452) - https://sketch.com -->
    <title>Home White</title>
    <desc>Created with Sketch.</desc>
    <g id="Home-White" stroke="none" stroke-width="1" fill="none" fill-rule="evenodd">
        <rect id="Rectangle" fill="#FFFFFF" opacity="0" x="0" y="0" width="24" height="24"></rect>
        <g id="Group" transform="translate(2.000000, 4.000000)" fill="#FFFFFF">
            <path d="M9.99142694,0 L0,5.33333333 L0,5.33511111 L0.93160602,6.62222222 L2.37950086,5.936 L2.37950086,16 L17.6204991,16 L17.6204991,5.93866667 L19.0788722,6.63555556 L20,5.34755556 L20,5.34577778 L9.99142694,0 Z M4,4.94985165 L9.993,2 L16,4.95245676 L16,14 L13,14 L13,7.92141255 L7,7.92141255 L7,14 L4,14 L4,4.94985165 Z M7,14 L12,14 L12,9 L7,9 L7,14 Z" id="Fill-1"></path>
            <rect id="Rectangle" x="7" y="9" width="1" height="5"></rect>
        </g>
    </g>
</svg>