<?xml version="1.0" standalone="no"?>
<!DOCTYPE svg PUBLIC "-//W3C//DTD SVG 1.1//EN" "http://www.w3.org/Graphics/SVG/1.1/DTD/svg11.dtd" >
<svg xmlns="http://www.w3.org/2000/svg">
<metadata>Generated by IcoMoon</metadata>
<defs>
<font id="icomoon" horiz-adv-x="1024">
<font-face units-per-em="1024" ascent="960" descent="-64" />
<missing-glyph horiz-adv-x="1024" />
<glyph unicode="&#x20;" horiz-adv-x="512" d="" />
<glyph unicode="&#xe900;" glyph-name="Ntofication" d="M512-64c-275.524 0.436-498.763 223.675-499.2 499.158v25.642c0 275.701 223.499 499.2 499.2 499.2s499.2-223.499 499.2-499.2v0-25.6c-0.436-275.524-223.675-498.763-499.158-499.2h-0.042zM512 908.8c-247.307-0.291-447.709-200.694-448-447.973v-25.627c0-247.424 200.576-448 448-448s448 200.576 448 448v0 25.6c-0.291 247.307-200.694 447.709-447.973 448h-0.027zM456.448 297.216c-1.301 2.317-2.068 5.086-2.068 8.033 0 6.186 3.376 11.584 8.386 14.452l0.081 0.043c2.387 1.437 5.269 2.287 8.349 2.287 6.025 0 11.291-3.253 14.137-8.098l0.042-0.077 1.28-1.792c2.693-3.5 6.883-5.733 11.595-5.733 3.59 0 6.877 1.296 9.419 3.446l-0.021-0.018c1.513 1.049 2.726 2.426 3.555 4.034l0.029 0.062 1.536 2.304c3.046 4.362 8.042 7.18 13.696 7.18 9.197 0 16.652-7.455 16.652-16.652 0-3.543-1.106-6.827-2.992-9.526l0.036 0.054c-8.529-14.534-24.078-24.138-41.87-24.138-8.901 0-17.241 2.404-24.406 6.598l0.229-0.124c-7.299 4.415-13.249 10.365-17.536 17.436l-0.128 0.228zM355.584 352.256c-9.079 0.144-16.384 7.538-16.384 16.638 0 0.001 0 0.001 0 0.002v0c0 0.003 0 0.006 0 0.009 0 5.687 2.809 10.717 7.116 13.779l0.052 0.035h1.536c6.864 6.369 12.529 13.915 16.695 22.335l0.201 0.449c13.852 27.95 21.957 60.862 21.957 95.667 0 3.268-0.071 6.52-0.213 9.753l0.016-0.461c-0.082 1.597-0.128 3.468-0.128 5.35 0 61.785 50.087 111.872 111.872 111.872s111.872-50.087 111.872-111.872c0-1.882-0.046-3.753-0.138-5.612l0.010 0.262c-0.107-2.58-0.168-5.608-0.168-8.65 0-35.020 8.092-68.151 22.508-97.624l-0.58 1.313c4.601-9.389 10.803-17.31 18.33-23.723l0.102-0.085 2.048-1.536c2.957-3.040 4.78-7.195 4.78-11.776s-1.823-8.736-4.784-11.78l0.004 0.004c-3.093-3.271-7.446-5.323-12.278-5.376h-0.010zM419.84 511.488c0.129-3.005 0.202-6.53 0.202-10.072 0-40.337-9.529-78.447-26.459-112.204l0.656 1.445-2.816-5.12h214.272l-2.816 5.12c-16.259 32.508-25.777 70.823-25.777 111.362 0 3.331 0.064 6.646 0.192 9.945l-0.015-0.475c0.082 1.34 0.128 2.906 0.128 4.484 0 43.405-35.187 78.592-78.592 78.592s-78.592-35.187-78.592-78.592c0-1.577 0.046-3.144 0.138-4.698l-0.010 0.214z" />
<glyph unicode="&#xe901;" glyph-name="In-review" d="M771.84 896h-519.68v-280.32l167.68-167.68-167.68-168.32v-279.68h519.68v279.68l-167.68 168.32 167.68 167.68zM707.84 640l-149.12-146.56-46.72-45.44 45.44-45.44 150.4-146.56v-192h-391.68v192l149.12 146.56 46.72 45.44-45.44 45.44-150.4 146.56v192h391.68z" />
<glyph unicode="&#xe902;" glyph-name="Navigation-hamburger" d="M917.333 416h-810.667c-17.673 0-32 14.327-32 32s14.327 32 32 32v0h810.667c17.673 0 32-14.327 32-32s-14.327-32-32-32v0zM917.333 763.307h-810.667c-17.673 0-32 14.327-32 32s14.327 32 32 32v0h810.667c17.673 0 32-14.327 32-32s-14.327-32-32-32v0zM917.333 68.693h-810.667c-17.673 0-32 14.327-32 32s14.327 32 32 32v0h810.667c17.673 0 32-14.327 32-32s-14.327-32-32-32v0z" />
<glyph unicode="&#xe903;" d="M128 960h768c70.692 0 128-57.308 128-128v-768c0-70.692-57.308-128-128-128h-768c-70.692 0-128 57.308-128 128v768c0 70.692 57.308 128 128 128z" />
<glyph unicode="&#xe904;" d="M736 448c0 41.237 33.429 74.667 74.667 74.667s74.667-33.429 74.667-74.667c0-41.237-33.429-74.667-74.667-74.667v0c-41.237 0-74.667 33.429-74.667 74.667v0zM437.333 448c0 41.237 33.429 74.667 74.667 74.667s74.667-33.429 74.667-74.667c0-41.237-33.429-74.667-74.667-74.667v0c-41.237 0-74.667 33.429-74.667 74.667v0zM138.667 448c0 41.237 33.429 74.667 74.667 74.667s74.667-33.429 74.667-74.667c0-41.237-33.429-74.667-74.667-74.667v0c-41.237 0-74.667 33.429-74.667 74.667v0z" />
<glyph unicode="&#xe905;" d="M0 960h1024v-1024h-1024v1024z" />
<glyph unicode="&#xe906;" glyph-name="Refresh" d="M60.587-64v256h256v-64h-115.2c80.377-78.24 190.287-126.49 311.467-126.49 246.636 0 446.589 199.872 446.72 446.477v0.013h64.427c-1.306-281.78-230.033-509.701-511.995-509.701-154.723 0-293.416 68.63-387.299 177.109l-0.546 0.646v-180.053zM0 448c1.456 281.665 230.126 509.436 511.994 509.436 150.193 0 285.282-64.671 378.939-167.685l0.374-0.417v170.667h64v-256h-256v63.147h128c-80.876 80.297-192.297 129.923-315.309 129.923-247.188 0-447.573-200.385-447.573-447.573 0-0.526 0.001-1.052 0.003-1.577v0.081z" />
<glyph unicode="&#xe907;" d="M512 960v0c282.77 0 512-229.23 512-512v0 0c0-282.77-229.23-512-512-512v0 0c-282.77 0-512 229.23-512 512v0 0c0 282.77 229.23 512 512 512v0z" />
<glyph unicode="&#xe908;" d="M512 704v0c141.385 0 256-114.615 256-256v0 0c0-141.385-114.615-256-256-256v0 0c-141.385 0-256 114.615-256 256v0 0c0 141.385 114.615 256 256 256v0z" />
<glyph unicode="&#xe909;" glyph-name="Radio-button-unselected" d="M497.28-56.96c-282.77 0-512 229.23-512 512s229.23 512 512 512c282.77 0 512-229.23 512-512v0c0-282.77-229.23-512-512-512v0zM497.28 903.040c-247.424 0-448-200.576-448-448s200.576-448 448-448c247.424 0 448 200.576 448 448v0c0 247.424-200.576 448-448 448v0z" />
<glyph unicode="&#xe90a;" glyph-name="Indicator" d="M896 448c0-212.077-171.923-384-384-384s-384 171.923-384 384c0 212.077 171.923 384 384 384s384-171.923 384-384z" />
<glyph unicode="&#xe90b;" glyph-name="Indicator-2" d="M896 448c0-212.077-171.923-384-384-384s-384 171.923-384 384c0 212.077 171.923 384 384 384s384-171.923 384-384z" />
<glyph unicode="&#xe90c;" glyph-name="Refresh-2" d="M63.92-62.722v255.68h255.68v-63.92h-118.252c80.288-77.239 189.6-124.812 310.023-124.812 246.050 0 445.714 198.604 447.43 444.25l0.001 0.163h63.92c-3.283-279.906-230.954-505.549-511.328-505.549-152.493 0-289.395 66.749-383.084 172.624l-0.47 0.541v-178.976zM0 448.639c-0.006 0.924-0.009 2.017-0.009 3.111 0 282.417 228.944 511.361 511.361 511.361 152.48 0 289.372-66.738 383.061-172.598l0.47-0.541v170.027h63.92v-255.68h-255.68v63.92h127.84c-81.283 82.935-194.461 134.346-319.648 134.346-247.115 0-447.441-200.326-447.441-447.441 0-2.287 0.017-4.571 0.051-6.85l-0.004 0.345z" />
<glyph unicode="&#xe90d;" glyph-name="Close" d="M862.080 30.080l-350.080 350.080-350.080-350.080c-8.549-7.982-20.063-12.883-32.723-12.883-26.51 0-48 21.49-48 48 0 12.659 4.901 24.174 12.908 32.751l-0.026-0.028 350.080 350.080-350.080 350.080c-7.982 8.549-12.883 20.063-12.883 32.723 0 26.51 21.49 48 48 48 12.659 0 24.174-4.901 32.751-12.908l-0.028 0.026 350.080-350.080 350.080 350.080c8.549 7.982 20.063 12.883 32.723 12.883 26.51 0 48-21.49 48-48 0-12.659-4.901-24.174-12.908-32.751l0.026 0.028-350.080-350.080 350.080-350.080c7.982-8.549 12.883-20.063 12.883-32.723 0-26.51-21.49-48-48-48-12.659 0-24.174 4.901-32.751 12.908l0.028-0.026z" />
<glyph unicode="&#xe90e;" glyph-name="Information" d="M512 480c-17.673 0-32-14.327-32-32v0-170.56c0-17.673 14.327-32 32-32s32 14.327 32 32v0 170.56c0 17.673-14.327 32-32 32v0zM827.2 781.12c-82.552 80.443-195.482 130.058-320 130.058-253.332 0-458.698-205.366-458.698-458.698 0-128.814 53.098-245.226 138.6-328.544l0.099-0.096c2.86-3.176 5.784-6.1 8.854-8.866l0.106-0.094c82.552-80.443 195.482-130.058 320-130.058 253.332 0 458.698 205.366 458.698 458.698 0 128.814-53.098 245.226-138.6 328.544l-0.099 0.096zM791.040 168.96c-71.397-71.375-170.019-115.52-278.952-115.52-217.909 0-394.56 176.651-394.56 394.56s176.651 394.56 394.56 394.56c108.933 0 207.555-44.145 278.953-115.521l-0.001 0.001c71.505-71.37 115.741-170.039 115.741-279.040s-44.236-207.669-115.734-279.034l-0.006-0.006zM516.16 650.56h-4.16c-17.673 0-32-14.327-32-32s14.327-32 32-32v0 0c0.039 0 0.084 0 0.13 0 16.659 0 30.345 12.73 31.861 28.993l0.010 0.127c0.098 0.939 0.154 2.029 0.154 3.132 0 16.261-12.129 29.689-27.833 31.731l-0.161 0.017z" />
<glyph unicode="&#xe90f;" glyph-name="Data-table-sort" d="M512 54.4c-0.952-0.080-2.060-0.125-3.178-0.125-10.056 0-19.252 3.681-26.314 9.77l0.052-0.044-192 192c-8.646 7.973-14.042 19.356-14.042 32 0 24.015 19.468 43.482 43.482 43.482 11.371 0 21.722-4.365 29.47-11.51l-0.030 0.027 162.56-165.12 162.56 165.12c7.534 7.534 17.943 12.194 29.44 12.194 22.994 0 41.634-18.64 41.634-41.634 0-11.497-4.66-21.906-12.194-29.44v0l-192-192c-7.089-8.601-17.563-14.191-29.354-14.717l-0.086-0.003zM704 566.4c-0.952-0.080-2.060-0.125-3.178-0.125-10.056 0-19.252 3.681-26.314 9.77l0.052-0.044-162.56 165.12-162.56-165.12c-7.718-7.118-18.069-11.482-29.44-11.482-24.015 0-43.482 19.468-43.482 43.482 0 12.644 5.397 24.027 14.012 31.973l0.030 0.027 192 192c7.599 7.392 17.987 11.95 29.44 11.95s21.841-4.558 29.45-11.959l-0.010 0.009 192-192c7.392-7.599 11.95-17.987 11.95-29.44s-4.558-21.841-11.959-29.45l0.009 0.010c-7.089-8.601-17.563-14.191-29.354-14.717l-0.086-0.003z" />
<glyph unicode="&#xe910;" glyph-name="Delete" d="M298.88-10.88c-61.432 0.448-111.709 47.612-117.087 107.705l-0.033 0.455v576h-53.76c-17.673 0-32 14.327-32 32s14.327 32 32 32v0h181.12v51.84c0.448 61.432 47.612 111.709 107.705 117.087l0.455 0.033h179.84c61.432-0.448 111.709-47.612 117.087-107.705l0.033-0.455v-64h181.76c17.673 0 32-14.327 32-32s-14.327-32-32-32h-53.12v-565.12c-0.448-61.432-47.612-111.709-107.705-117.087l-0.455-0.033h-435.84zM245.12 106.88c0.092-27.134 20.273-49.527 46.442-53.089l0.278-0.031h433.28c27.134 0.092 49.527 20.273 53.089 46.442l0.031 0.278v571.52h-533.12zM650.88 736v53.12c-0.092 27.134-20.273 49.527-46.442 53.089l-0.278 0.031h-177.28c-27.134-0.092-49.527-20.273-53.089-46.442l-0.031-0.278v-59.52z" />
<glyph unicode="&#xe911;" glyph-name="Clone" d="M469.12-10.88c-64.761 0.363-117.12 52.946-117.12 117.758 0 0.001 0 0.001 0 0.002v0 384c0 64.684 52.436 117.12 117.12 117.12v0h384c0.001 0 0.001 0 0.002 0 64.812 0 117.395-52.359 117.758-117.086v-384.034c-0.361-64.891-52.869-117.399-117.725-117.76h-0.035zM416 490.88v-384c0-0.001 0-0.002 0-0.004 0-29.466 23.706-53.395 53.086-53.756h384.034c29.546 0.357 53.403 24.214 53.76 53.726v384.034c-0.361 29.414-24.29 53.12-53.756 53.12-0.001 0-0.003 0-0.004 0h-384c-29.337 0-53.12-23.783-53.12-53.12v0zM170.88 288c-0.19-0.001-0.415-0.002-0.64-0.002-64.684 0-117.12 52.436-117.12 117.12 0 0.001 0 0.001 0 0.002v0 384c0 65.037 52.723 117.76 117.76 117.76v0h384c0 0 0.001 0 0.002 0 64.684 0 117.12-52.436 117.12-117.12 0-0.225-0.001-0.45-0.002-0.674v0.034-42.24c0-17.673-14.327-32-32-32s-32 14.327-32 32v0 42.24c0 0.001 0 0.002 0 0.004 0 29.466-23.706 53.395-53.086 53.756h-384.034c-29.546-0.357-53.403-24.214-53.76-53.726v-384.034c0.361-29.414 24.29-53.12 53.756-53.12 0.001 0 0.003 0 0.004 0h42.24c17.673 0 32-14.327 32-32s-14.327-32-32-32v0z" />
<glyph unicode="&#xe912;" glyph-name="Edit" d="M167.68-13.44c0 0-0.001 0-0.002 0-64.684 0-117.12 52.436-117.12 117.12 0 0.225 0.001 0.45 0.002 0.674v-0.034 599.68c1.434 63.573 53.309 114.56 117.092 114.56 0.010 0 0.020 0 0.030 0h298.878c17.673 0 32-14.327 32-32v0c0-17.673-14.327-32-32-32v0h-298.88c-0.018 0-0.040 0-0.062 0-28.437 0-51.655-22.345-53.053-50.435l-0.005-0.125v-597.12c0-0.001 0-0.002 0-0.004 0-29.466 23.706-53.395 53.086-53.756h600.354c29.414 0.361 53.12 24.29 53.12 53.756 0 0.001 0 0.003 0 0.004v0 295.68c0 17.673 14.327 32 32 32s32-14.327 32-32v0-298.24c0.001-0.19 0.002-0.415 0.002-0.64 0-64.684-52.436-117.12-117.12-117.12-0.001 0-0.001 0-0.002 0h-600.32zM312.96 256c-4.164 5.273-6.678 12.016-6.678 19.346 0 2.675 0.335 5.272 0.965 7.751l-0.047-0.217 42.88 170.88c1.138 5.893 4.113 10.956 8.295 14.698l0.025 0.022 405.76 405.76c21.963 21.759 52.196 35.203 85.569 35.203 0.292 0 0.584-0.001 0.876-0.003h-0.045c30.074-0.083 57.592-10.956 78.903-28.95l-0.183 0.15 8.32-7.040 7.040-8.32c17.864-21.113 28.724-48.65 28.724-78.723 0-33.736-13.666-64.28-35.764-86.398l0.001 0.001-405.76-405.12c-3.764-4.207-8.827-7.182-14.555-8.293l-0.165-0.027-170.88-42.88h-7.68c-0.237-0.006-0.517-0.010-0.797-0.010-10.059 0-19.012 4.736-24.751 12.1l-0.053 0.070zM808.96 828.8l-398.72-399.36-26.24-109.44 108.8 26.24 399.36 398.72c11.706 10.868 19.007 26.342 19.007 43.52 0 32.765-26.562 59.327-59.327 59.327-15.587 0-29.77-6.011-40.357-15.841l0.037 0.034z" />
<glyph unicode="&#xe913;" glyph-name="Search" d="M874.24 40.96l-163.84 163.84c-64.475-54.625-148.6-87.837-240.483-87.837-206.068 0-373.12 167.052-373.12 373.12s167.052 373.12 373.12 373.12c206.068 0 373.12-167.052 373.12-373.12 0-91.883-33.212-176.009-88.286-241.027l0.45 0.544 163.84-163.84c5.976-5.618 9.697-13.574 9.697-22.4s-3.722-16.782-9.681-22.385l-0.016-0.015c-5.697-5.811-13.628-9.413-22.4-9.413s-16.703 3.602-22.395 9.407l-0.005 0.005zM160.64 488.96c0-0.185-0.001-0.403-0.001-0.622 0-170.722 138.398-309.12 309.12-309.12 84.243 0 160.615 33.699 216.372 88.352l-0.051-0.050c1.388 2.030 3.090 3.732 5.054 5.078l0.066 0.042c54.227 55.635 87.674 131.751 87.674 215.678 0 170.722-138.398 309.12-309.12 309.12-170.046 0-308.024-137.304-309.113-307.094l-0.001-0.104z" />
<glyph unicode="&#xe914;" glyph-name="Breadcrumb-arrow" d="M361.6 214.4c-5.846-5.8-9.466-13.837-9.466-22.72s3.619-16.92 9.463-22.718l0.002-0.002c5.791-5.332 13.554-8.602 22.080-8.602s16.289 3.269 22.103 8.622l-0.023-0.021 256 256c5.846 5.8 9.466 13.837 9.466 22.72s-3.619 16.92-9.463 22.718l-256.002 256.002c-5.618 5.976-13.574 9.697-22.4 9.697s-16.782-3.722-22.385-9.681l-0.015-0.016c-5.846-5.8-9.466-13.837-9.466-22.72s3.619-16.92 9.463-22.718l0.002-0.002 233.6-232.96zM0 960h1024v-1024h-1024v1024z" />
<glyph unicode="&#xe915;" glyph-name="Expand" d="M512 323.84l-350.080 350.080c-8.549 7.982-20.063 12.883-32.723 12.883-26.51 0-48-21.49-48-48 0-12.659 4.901-24.174 12.908-32.751l-0.026 0.028 384-384c8.684-8.674 20.676-14.038 33.92-14.038s25.236 5.364 33.921 14.038l383.999 383.999c7.982 8.549 12.883 20.063 12.883 32.723 0 26.51-21.49 48-48 48-12.659 0-24.174-4.901-32.751-12.908l0.028 0.026z" />
<glyph unicode="&#xe916;" glyph-name="Collapse" d="M508.16 576l354.56-344.96c6.985-4.195 15.413-6.677 24.421-6.677 26.51 0 48 21.49 48 48 0 10.149-3.15 19.562-8.525 27.315l0.104-0.159-385.92 376.96c-8.684 8.674-20.676 14.038-33.92 14.038s-25.236-5.364-33.921-14.038l0.001 0.001-378.88-389.76c-7.822-8.512-12.617-19.914-12.617-32.435 0-26.51 21.49-48 48-48 12.84 0 24.503 5.042 33.116 13.254l-0.019-0.018z" />
<glyph unicode="&#xe917;" glyph-name="Help" d="M507.904 357.888c-10.546 0.142-19.058 8.654-19.2 19.186v43.534c0.045 8.46 5.554 15.621 13.176 18.137l0.136 0.039c24.32 9.216 86.784 39.168 86.784 82.432 0 0.078 0 0.17 0 0.262 0 44.96-36.448 81.408-81.408 81.408-12.749 0-24.813-2.93-35.556-8.155l0.483 0.212c-19.564-9.381-34.466-25.865-41.555-46.029l-0.173-0.563c-3.047-6.818-9.769-11.484-17.581-11.484-10.604 0-19.2 8.596-19.2 19.2 0 1.809 0.25 3.56 0.718 5.219l-0.033-0.135c16.992 46.842 61.106 79.703 112.896 79.703 66.109 0 119.712-53.543 119.808-119.63v-0.009c0-64.256-70.4-100.864-100.608-113.664v-30.464c0-0.002 0-0.004 0-0.007 0-10.424-8.307-18.908-18.662-19.193l-0.026-0.001zM527.36 300.8c0-10.604-8.596-19.2-19.2-19.2s-19.2 8.596-19.2 19.2c0 10.604 8.596 19.2 19.2 19.2s19.2-8.596 19.2-19.2zM512-64c-275.524 0.436-498.763 223.675-499.2 499.158v25.642c0 275.701 223.499 499.2 499.2 499.2s499.2-223.499 499.2-499.2v0-25.6c-0.436-275.524-223.675-498.763-499.158-499.2h-0.042zM512 908.8c-247.307-0.291-447.709-200.694-448-447.973v-25.627c0-247.424 200.576-448 448-448s448 200.576 448 448v0 25.6c-0.291 247.307-200.694 447.709-447.973 448h-0.027z" />
<glyph unicode="&#xe918;" glyph-name="Favorite-selected" d="M794.88-39.040h-5.12l-277.76 148.48-277.76-145.28c-4.845-2.675-10.622-4.249-16.765-4.249-13.509 0-25.241 7.61-31.142 18.777l-0.092 0.192c-2.823 4.673-4.493 10.318-4.493 16.352 0 0.326 0.005 0.651 0.015 0.975l-0.001-0.047v3.84l53.12 309.12-224 220.16c-6.448 6.479-10.435 15.414-10.435 25.28s3.986 18.801 10.436 25.281l-0.001-0.001c3.743 3.751 8.208 6.78 13.17 8.86l0.27 0.1h6.4l310.4 45.44 138.88 282.24c5.81 11.916 17.833 19.981 31.74 19.981 5.943 0 11.542-1.473 16.451-4.073l-0.191 0.092c7.098-3.321 12.679-8.902 15.916-15.8l0.084-0.2 138.88-280.96 310.4-45.44c17.314-2.398 30.502-17.101 30.502-34.885 0-1.919-0.153-3.801-0.449-5.637l0.027 0.202c-0.527-6.124-2.854-11.622-6.443-16.055l0.043 0.055-3.84-4.48-224.64-218.88 53.12-310.4c0.348-1.876 0.548-4.035 0.548-6.241 0-17.727-12.87-32.448-29.776-35.329l-0.212-0.030h-5.76z" />
<glyph unicode="&#xe919;" glyph-name="Favorite-unselected" d="M806.4-40.32h-16.64l-277.76 149.76-277.76-145.28c-4.553-2.817-10.075-4.487-15.986-4.487-0.23 0-0.459 0.003-0.688 0.008l0.034-0.001c-10.042 0.035-19.106 4.194-25.592 10.871l-0.008 0.009c-6.328 6.363-10.24 15.135-10.24 24.82 0 0.049 0 0.098 0 0.147v-0.008 4.48l53.12 309.12-224 220.16c-6.448 6.479-10.435 15.414-10.435 25.28s3.986 18.801 10.436 25.281l-0.001-0.001c3.743 3.751 8.208 6.78 13.17 8.86l0.27 0.1h6.4l310.4 45.44 138.88 282.24c5.81 11.916 17.833 19.981 31.74 19.981 5.943 0 11.542-1.473 16.451-4.073l-0.191 0.092c7.098-3.321 12.679-8.902 15.916-15.8l0.084-0.2 138.88-280.96 310.4-45.44c17.314-2.398 30.502-17.101 30.502-34.885 0-1.919-0.153-3.801-0.449-5.637l0.027 0.202c-0.527-6.124-2.854-11.622-6.443-16.055l0.043 0.055-3.84-4.48-224.64-218.88 53.12-310.4c0.322-1.804 0.506-3.881 0.506-6.002 0-8.688-3.091-16.654-8.234-22.858l0.048 0.059c-6.673-7.105-16.127-11.531-26.615-11.531-0.318 0-0.636 0.004-0.952 0.012l0.047-0.001zM512 185.6h16.64l230.4-120.96-44.16 256c-0.243 1.625-0.383 3.5-0.383 5.407 0 7.742 2.291 14.949 6.233 20.98l-0.090-0.147 4.48 5.12 186.24 181.12-256 37.76c-9.522 1.526-17.619 6.684-22.971 13.982l-0.069 0.098-5.12 1.92-115.2 233.6-115.2-233.6c-5.374-10.153-15.127-17.371-26.675-19.174l-0.205-0.026-256-37.76 184.96-181.76c6.199-6.326 10.229-14.798 10.873-24.201l0.007-0.119v-7.040l-44.16-256 230.4 120.96c4.665 2.357 10.16 3.767 15.976 3.84h0.024z" />
<glyph unicode="&#xe91a;" glyph-name="Approved" d="M128 198.4c-46.072 70.339-73.482 156.507-73.482 249.077 0 253.432 205.448 458.88 458.88 458.88 67.136 0 130.904-14.417 188.378-40.325l-2.895 1.167c11.356-5.152 19.111-16.39 19.111-29.44 0-17.801-14.43-32.231-32.231-32.231-4.751 0-9.262 1.028-13.322 2.873l0.202-0.082c-47.142 21.514-102.25 34.055-160.287 34.055-217.733 0-394.24-176.507-394.24-394.24s176.507-394.24 394.24-394.24c159.508 0 296.891 94.728 358.961 230.997l1.007 2.468c19.558 42.418 31.84 91.842 33.897 143.894l0.023 0.746v55.040c-0.004 0.19-0.007 0.415-0.007 0.64 0 17.32 14.040 31.36 31.36 31.36 0.002 0 0.005 0 0.007 0v0c0.155 0.003 0.338 0.004 0.522 0.004 15.638 0 28.657-11.218 31.447-26.046l0.031-0.199v-44.8c-2.012-251.901-206.683-455.328-458.866-455.328-159.15 0-299.378 81.020-381.686 204.065l-1.048 1.664zM493.44 336l-3.84 3.2-128 128c-5.771 5.787-9.339 13.774-9.339 22.593 0 17.673 14.327 32 32 32 6.577 0 12.69-1.984 17.775-5.387l-0.116 0.073 4.48-4.48 105.6-104.32 403.84 404.48c5.919 7.085 14.757 11.56 24.64 11.56 17.695 0 32.040-14.345 32.040-32.040 0-7.812-2.796-14.971-7.441-20.531l0.041 0.051-5.12-3.2-425.6-428.16c-5.722-5.989-13.771-9.712-22.69-9.712-6.857 0-13.201 2.201-18.362 5.935l0.092-0.063z" />
<glyph unicode="&#xe91b;" glyph-name="Draft" d="M735.36 128c0.189 0.002 0.413 0.004 0.636 0.004 30.044 0 54.4-24.356 54.4-54.4s-24.356-54.4-54.4-54.4c-30.044 0-54.4 24.356-54.4 54.4 0 0.224 0.001 0.447 0.004 0.67v-0.034c0 29.691 24.069 53.76 53.76 53.76v0zM565.12 128c27.401-3.072 48.508-26.111 48.508-54.080s-21.107-51.008-48.261-54.057l-0.247-0.023c-29.495 0.707-53.135 24.786-53.135 54.385 0 0.455 0.006 0.909 0.017 1.362l-0.001-0.067c1.040 28.779 24.283 51.798 53.055 52.479l0.065 0.001zM906.24 128c0.189 0.002 0.413 0.004 0.636 0.004 30.044 0 54.4-24.356 54.4-54.4s-24.356-54.4-54.4-54.4c-30.044 0-54.4 24.356-54.4 54.4 0 0.224 0.001 0.447 0.004 0.67v-0.034c0 29.691 24.069 53.76 53.76 53.76v0zM106.88 0c-23.759 0.361-42.88 19.705-42.88 43.515 0 0.002 0 0.003 0 0.005v0c-0.131 1.533-0.205 3.318-0.205 5.12s0.074 3.587 0.221 5.351l-0.015-0.231 57.6 229.12c1.872 7.896 5.93 14.658 11.495 19.817l0.025 0.023 544 545.28c29.762 29.748 70.871 48.146 116.276 48.146 40.409 0 77.415-14.572 106.049-38.748l-0.245 0.201 10.88-10.24 10.24-10.88c23.621-28.277 37.964-65.017 37.964-105.106 0-45.434-18.422-86.566-48.203-116.333l-0.001-0.001-543.36-545.28c-5.35-5.178-12.062-8.981-19.546-10.819l-0.294-0.061-229.12-58.88zM797.44 824.32c-25.121-0.33-47.733-10.803-63.98-27.499l-0.020-0.021-556.8-548.48-48.64-188.16 176.64 44.16 558.72 560.64c16.856 16.996 27.272 40.402 27.272 66.24s-10.416 49.244-27.278 66.246l0.006-0.006c-16.763 16.615-39.842 26.882-65.32 26.882-0.211 0-0.422-0.001-0.633-0.002h0.032z" />
<glyph unicode="&#xe91c;" glyph-name="Advance-filter" d="M583.040 35.2l-170.88 85.76c-10.315 5.1-17.285 15.549-17.285 27.626 0 0.188 0.002 0.375 0.005 0.562v-0.028 267.52l-330.88 394.88c-5.811 5.697-9.413 13.628-9.413 22.4s3.602 16.703 9.407 22.395l0.005 0.005c5.301 4.767 12.349 7.683 20.079 7.683 0.141 0 0.282-0.001 0.422-0.003h854.379c17.673 0 32-14.327 32-32v0c-0.246-7.824-3.104-14.935-7.726-20.538l0.046 0.058-334.080-394.88v-352.64c0-17.673-14.327-32-32-32v0c-5.122 0.069-9.954 1.241-14.29 3.289l0.21-0.089z" />
<glyph unicode="&#xe91d;" glyph-name="Advance-filter-2" d="M583.040 35.2l-170.88 85.76c-10.315 5.1-17.285 15.549-17.285 27.626 0 0.188 0.002 0.375 0.005 0.562v-0.028 267.52l-330.88 394.88c-5.811 5.697-9.413 13.628-9.413 22.4s3.602 16.703 9.407 22.395l0.005 0.005c5.301 4.767 12.349 7.683 20.079 7.683 0.141 0 0.282-0.001 0.422-0.003h854.379c17.673 0 32-14.327 32-32v0c-0.246-7.824-3.104-14.935-7.726-20.538l0.046 0.058-334.080-394.88v-352.64c0-17.673-14.327-32-32-32v0c-5.122 0.069-9.954 1.241-14.29 3.289l0.21-0.089z" />
<glyph unicode="&#xe91e;" glyph-name="Unpinned" d="M49.5-25.831c-8.837 3.816-14.91 12.455-14.91 22.513 0 0.053 0 0.105 0 0.157v-0.008c1.17 9.827 5.503 18.472 11.936 25.057l-0.008-0.008 87.073 110.928 245.712 311.911-165.796 166.989c38.689 15.857 83.593 25.061 130.646 25.061 29.84 0 58.815-3.702 86.491-10.671l-2.437 0.52c75.741 107.35 178.917 251.676 178.917 251.676 15.656 23.662 40.435 40.209 69.21 44.657l0.567 0.072c10.311-0.042 19.833-3.391 27.568-9.039l-0.134 0.093c11.928-10.139 35.783-35.783 35.783-35.783l233.785-237.363c6.627-6.991 11.591-15.626 14.216-25.226l0.097-0.418c0.579-3.121 0.91-6.711 0.91-10.379 0-9.227-2.095-17.964-5.836-25.763l0.155 0.358c-6.562-12.258-15.161-22.57-25.454-30.864l-0.19-0.148c-11.928-8.946-119.278-80.513-119.278-80.513l-146.712-100.79c6.589-26.221 10.369-56.322 10.369-87.307 0-8.731-0.3-17.392-0.891-25.973l0.064 1.159c-2.689-39.295-11.425-75.819-25.301-109.693l0.849 2.343s-80.513 78.723-172.356 171.76l-184.881-147.308-242.73-192.634c-4.101-4.101-9.767-6.637-16.025-6.637-0.657 0-1.308 0.028-1.951 0.083l0.084-0.006z" />
<glyph unicode="&#xe91f;" glyph-name="Pinned" d="M650.064-53.861l-282.688 286.267-112.718-89.458-161.621-128.82c-3.010-2.951-7.136-4.773-11.689-4.773-2.234 0-4.366 0.439-6.314 1.235l0.111-0.040c-5.971 2.247-10.143 7.911-10.143 14.549 0 0.127 0.002 0.253 0.005 0.379v-0.019c0.563 6.675 3.665 12.532 8.324 16.677l0.025 0.022 59.639 73.952 155.061 196.808-270.164 268.375c-8.083 8.092-13.081 19.267-13.081 31.609s4.999 23.516 13.082 31.609v0c8.092 8.083 19.267 13.081 31.609 13.081s23.516-4.999 31.609-13.082v0l634.558-632.172c9.011-8.213 14.644-19.998 14.644-33.1s-5.633-24.887-14.609-33.068l-0.036-0.032c-8.092-8.083-19.267-13.081-31.609-13.081s-23.516 4.999-31.609 13.082v0zM243.923 648.089c38.063 15.392 82.208 24.323 128.438 24.323 30.427 0 59.95-3.868 88.104-11.14l-2.438 0.534c75.741 107.35 178.917 251.080 178.917 251.080s31.012 47.115 69.778 47.115c10.303-0.127 19.804-3.46 27.578-9.044l-0.144 0.099c11.928-10.139 36.38-36.38 36.38-36.38l154.465-155.658 78.723-80.513c6.85-6.95 12.011-15.584 14.805-25.223l0.105-0.421c0.411-2.797 0.646-6.026 0.646-9.31 0-9.566-1.993-18.666-5.586-26.908l0.169 0.435c-6.562-12.258-15.161-22.57-25.454-30.864l-0.19-0.148c-11.928-8.946-119.278-80.513-119.278-80.513l-148.501-101.386c6.58-26.268 10.355-56.423 10.355-87.46 0-8.677-0.295-17.285-0.876-25.815l0.063 1.154c-3.334-39.443-12.018-75.892-25.366-110.002l0.914 2.652s-461.605 463.394-461.605 463.394z" />
<glyph unicode="&#xe920;" glyph-name="New-indicator" horiz-adv-x="1934" d="M227.556 960h1479.111c125.675 0 227.556-101.88 227.556-227.556v-568.889c0-125.675-101.88-227.556-227.556-227.556h-1479.111c-125.675 0-227.556 101.88-227.556 227.556v568.889c0 125.675 101.88 227.556 227.556 227.556z" />
<glyph unicode="&#xe921;" horiz-adv-x="2048" d="M512 960h1024c282.77 0 512-229.23 512-512v0 0c0-282.77-229.23-512-512-512v0h-1024c-282.77 0-512 229.23-512 512v0 0c0 282.77 229.23 512 512 512v0z" />
<glyph unicode="&#xe922;" horiz-adv-x="2048" d="M1877.333 448c0-188.513-152.82-341.333-341.333-341.333s-341.333 152.82-341.333 341.333c0 188.513 152.82 341.333 341.333 341.333s341.333-152.82 341.333-341.333z" />
<glyph unicode="&#xe923;" glyph-name="Icon-1" horiz-adv-x="1067" d="M170.667 960h725.333c94.257 0 170.667-76.41 170.667-170.667v-682.667c0-94.257-76.41-170.667-170.667-170.667h-725.333c-94.257 0-170.667 76.41-170.667 170.667v682.667c0 94.257 76.41 170.667 170.667 170.667z" />
<glyph unicode="&#xe924;" d="M128 960h768c70.692 0 128-57.308 128-128v-768c0-70.692-57.308-128-128-128h-768c-70.692 0-128 57.308-128 128v768c0 70.692 57.308 128 128 128z" />
<glyph unicode="&#xe925;" d="M719.36 631.68c5.244 6.225 13.043 10.154 21.76 10.154 15.681 0 28.394-12.712 28.394-28.394 0-6.964-2.507-13.343-6.669-18.283l0.035 0.043-3.2-3.84-311.68-312.96c-4.924-4.054-11.295-6.512-18.24-6.512s-13.316 2.458-18.29 6.552l0.050-0.040h-3.84l-143.36 142.72c-5.211 5.015-8.448 12.050-8.448 19.84s3.237 14.825 8.44 19.832l0.009 0.008c5.289 5.812 12.884 9.446 21.327 9.446 6.425 0 12.359-2.104 17.15-5.661l-0.077 0.055 3.84-3.84 120.32-121.6z" />
<glyph unicode="&#xe926;" d="M128 832h768v-768h-768v768z" />
<glyph unicode="&#xe927;" glyph-name="Icon-3" d="M896-64h-768c-70.692 0-128 57.308-128 128v0 768c0 70.692 57.308 128 128 128v0h768c70.692 0 128-57.308 128-128v0-768c0-70.692-57.308-128-128-128v0zM128 896c-35.346 0-64-28.654-64-64v0-768c0-35.346 28.654-64 64-64v0h768c35.346 0 64 28.654 64 64v0 768c0 35.346-28.654 64-64 64v0z" />
<glyph unicode="&#xe928;" glyph-name="Raw-material" d="M904.32 586.88v0 239.36s0 3.84 0 5.76c0 101.12-246.4 128-392.32 128s-392.32-26.88-392.32-128c0 0 0-3.84 0-5.76v0-750.080c1.92-96 204.16-140.16 392.32-140.16s392.32 44.16 392.32 141.44v0 275.2s0 3.2 0 5.12v0 225.28s0 2.56 0 3.84zM183.68 512c91.152-36.218 196.769-57.219 307.292-57.219 7.394 0 14.766 0.094 22.115 0.281l-1.087-0.022c8.012-0.267 17.43-0.419 26.884-0.419 108.032 0 211.422 19.872 306.716 56.159l-5.92-1.979v-152.32c-3.2-36.48-135.68-100.48-327.68-100.48s-328.32 64-328.32 101.76v0zM183.68 589.44v167.040c89.301-33.524 192.51-52.929 300.25-52.929 9.871 0 19.704 0.163 29.496 0.486l-1.426-0.037c7.727-0.241 16.815-0.379 25.936-0.379 108.249 0 211.973 19.376 307.892 54.85l-6.148-1.991v-169.6c-7.68-19.84-115.2-67.84-327.68-67.84s-320 49.28-328.32 67.84zM512 896c192 0 313.6-40.96 327.68-64-14.080-23.68-135.68-64-327.68-64s-320 42.24-328.32 64c8.32 21.12 130.56 64 328.32 64zM512 0c-213.12 0-328.32 55.040-328.32 77.44v0 187.52c89.436-46.198 195.208-73.284 307.306-73.284 7.39 0 14.753 0.118 22.086 0.351l-1.072-0.027c8.371-0.373 18.188-0.585 28.055-0.585 109.176 0 212.283 25.986 303.473 72.11l-3.848-1.765v-192c-3.2-16.64-117.76-69.76-327.68-69.76z" />
<glyph unicode="&#xe929;" glyph-name="Icon-4" d="M128 960h768c70.692 0 128-57.308 128-128v-768c0-70.692-57.308-128-128-128h-768c-70.692 0-128 57.308-128 128v768c0 70.692 57.308 128 128 128z" />
<glyph unicode="&#xe92a;" horiz-adv-x="2048" d="M512 960h1024c282.77 0 512-229.23 512-512v0 0c0-282.77-229.23-512-512-512v0h-1024c-282.77 0-512 229.23-512 512v0 0c0 282.77 229.23 512 512 512v0z" />
<glyph unicode="&#xe92b;" horiz-adv-x="2048" d="M853.333 448c0-188.513-152.82-341.333-341.333-341.333s-341.333 152.82-341.333 341.333c0 188.513 152.82 341.333 341.333 341.333s341.333-152.82 341.333-341.333z" />
<glyph unicode="&#xe92c;" glyph-name="More-options-general" d="M736 448c0 41.237 33.429 74.667 74.667 74.667s74.667-33.429 74.667-74.667c0-41.237-33.429-74.667-74.667-74.667v0c-41.237 0-74.667 33.429-74.667 74.667v0zM437.333 448c0 41.237 33.429 74.667 74.667 74.667s74.667-33.429 74.667-74.667c0-41.237-33.429-74.667-74.667-74.667v0c-41.237 0-74.667 33.429-74.667 74.667v0zM138.667 448c0 41.237 33.429 74.667 74.667 74.667s74.667-33.429 74.667-74.667c0-41.237-33.429-74.667-74.667-74.667v0c-41.237 0-74.667 33.429-74.667 74.667v0z" />
<glyph unicode="&#xe92d;" glyph-name="Correct" d="M277.76 112.64l-5.76 5.12-178.56 179.2c-8.464 8.061-13.728 19.416-13.728 32s5.264 23.939 13.71 31.983l0.018 0.017c8.122 8.198 19.383 13.274 31.83 13.274 9.654 0 18.594-3.053 25.909-8.247l-0.139 0.093 5.76-5.12 147.2-146.56 564.48 564.48c8.061 8.464 19.416 13.728 32 13.728s23.939-5.264 31.983-13.71l0.017-0.018c8.316-8.238 13.464-19.661 13.464-32.286 0-9.44-2.879-18.208-7.806-25.474l0.102 0.159-5.76-5.76-597.76-597.12c-8.133-8.269-19.442-13.393-31.947-13.393-9.331 0-17.995 2.852-25.169 7.733l0.156-0.1z" />
</font>
</defs>
</svg>
