<?xml version="1.0" encoding="UTF-8"?>
<svg width="16px" height="18px" viewBox="0 0 16 18" version="1.1" xmlns="http://www.w3.org/2000/svg" xmlns:xlink="http://www.w3.org/1999/xlink">
    <title>577D6FF5-A277-47F0-90A2-B9FC1661BC2C@1x</title>
    <g id="Collections" stroke="none" stroke-width="1" fill="none" fill-rule="evenodd">
        <g id="New-Saftey-Icons" transform="translate(-338.000000, -96.000000)" fill="#FFFFFF">
            <g id="EWI-/-Respirator" transform="translate(338.000000, 96.000000)">
                <path d="M14.5715692,14.1229459 C14.3455692,15.0949459 13.9795692,15.6519459 13.6925692,15.9579459 C13.1775692,14.5249459 13.1655692,13.2719459 13.6585692,12.3179459 C13.9385692,11.7779459 14.3135692,11.4599459 14.5135692,11.3179459 C14.5255692,11.3379459 14.5345692,11.3529459 14.5405692,11.3629459 C14.7815692,11.9889459 14.6465692,13.5519459 14.5715692,14.1229459 L14.5715692,14.1229459 Z M12.7235692,16.3659459 L12.6935692,16.3619459 L12.6635692,16.3649459 C12.4525692,16.3849459 12.2195692,16.1729459 12.0365692,15.9359459 C11.9475692,15.7719459 11.8575692,15.5919459 11.8575692,15.5919459 L12.3355692,15.5679459 L12.2015692,15.0199459 L11.7235692,14.9679459 C11.7045692,14.9539459 11.6875692,14.9279459 11.6745692,14.8939459 C11.6485692,14.7449459 11.6305692,14.5989459 11.6195692,14.4569459 L12.0905692,14.5019459 L12.0555692,14.0009459 L11.6075692,13.8739459 C11.6135692,13.7099459 11.6265692,13.5539459 11.6455692,13.4069459 L12.0785692,13.5109459 L12.1605692,12.9219459 L11.7795692,12.7319459 C11.8285692,12.5519459 11.8795692,12.4049459 11.9205692,12.2989459 L12.2775692,12.4849459 L12.5335692,12.0009459 L12.1985692,11.6929459 C12.2505692,11.6029459 12.3055692,11.5189459 12.3635692,11.4389459 L12.3765692,11.4249459 L12.7085692,11.6579459 L12.9655692,11.3549459 L12.6535692,11.0919459 C12.7205692,11.0219459 12.7875692,10.9579459 12.8515692,10.9019459 L13.1395692,11.0519459 L13.3495692,10.8529459 L13.1245692,10.6849459 C13.2055692,10.6269459 13.2675692,10.5889459 13.3005692,10.5699459 C13.6035692,10.5039459 13.8715692,10.6359459 14.0815692,10.8109459 C13.8175692,11.0059459 13.4065692,11.3769459 13.0905692,11.9719459 C12.6535692,12.7899459 12.3145692,14.2069459 13.1265692,16.3439459 C12.9685692,16.3829459 12.7915692,16.3749459 12.7235692,16.3659459 L12.7235692,16.3659459 Z M11.1025692,13.5199459 C11.0415692,13.3679459 10.9995692,13.2699459 10.9895692,13.2479459 C10.9465692,13.1389459 10.8915692,13.0479459 10.8305692,12.9739459 L11.4145692,11.0929459 C11.6885692,10.2889459 11.7105692,9.67294585 11.6375692,9.22394585 C11.9275692,9.41394585 12.3825692,9.78494585 12.6715692,10.3679459 C12.3165692,10.6459459 11.8175692,11.1409459 11.5295692,11.8779459 C11.4795692,11.9819459 11.1895692,12.6019459 11.1025692,13.5199459 L11.1025692,13.5199459 Z M11.2135692,15.6829459 L11.1595692,15.7729459 L8.44056925,15.8089459 C8.67156925,15.3309459 8.76056925,14.8939459 8.77556925,14.8169459 C8.90756925,14.2969459 9.11556925,13.8839459 9.28856925,13.6019459 L9.30256925,13.6169459 C9.45456925,13.4719459 9.84556925,13.1729459 10.0825692,13.1729459 L10.0975692,13.1749459 L10.1205692,13.1699459 C10.1705692,13.1649459 10.3915692,13.1609459 10.5035692,13.4449459 L10.5065692,13.4519459 C10.5115692,13.4629459 10.9915692,14.5829459 11.2715692,15.6769459 L11.2775692,15.7019459 L11.2885692,15.7259459 C11.2895692,15.7269459 11.2905692,15.7279459 11.2915692,15.7299459 L11.2135692,15.6829459 Z M10.3585692,17.0939459 L7.60656925,17.0729459 L7.51756925,16.9139459 C7.77756925,16.7519459 7.98656925,16.5339459 8.15456925,16.2979459 L8.15456925,16.3379459 L10.8385692,16.3019459 L10.3585692,17.0939459 Z M6.99756925,16.6229459 C6.63156925,16.6969459 6.28556925,16.7269459 5.96156925,16.7119459 C6.25856925,16.5159459 6.41256925,16.2499459 6.45556925,16.1669459 C7.28956925,14.9939459 6.71156925,13.2879459 6.68756925,13.2179459 C6.41056925,12.3939459 5.96256925,11.8259459 5.35656925,11.5269459 C5.08556925,11.3939459 4.81456925,11.3309459 4.57156925,11.3079459 C4.58156925,11.3019459 4.59256925,11.2959459 4.60456925,11.2899459 C5.17256925,10.9939459 5.76056925,10.8519459 6.09656925,10.7899459 L6.30956925,10.9579459 L5.90156925,11.1569459 L6.11156925,11.4009459 L6.58956925,11.2029459 L6.82256925,11.4009459 L6.43756925,11.6229459 L6.74056925,11.9959459 L7.14856925,11.7509459 L7.42856925,11.9839459 L6.99756925,12.2879459 L7.34656925,12.7889459 L7.84756925,12.5669459 L8.05756925,12.9869459 L7.47456925,13.2199459 L7.56856925,13.7909459 L8.31456925,13.6629459 L8.33756925,14.1759459 L7.62656925,14.2799459 L7.57956925,14.8169459 L8.25656925,14.8279459 L8.27156925,14.8269459 C8.26856925,14.8419459 8.26456925,14.8579459 8.25956925,14.8749459 L8.25656925,14.8279459 L8.16856925,15.1819459 C8.15356925,15.2269459 8.13556925,15.2749459 8.11756925,15.3239459 L7.45156925,15.3239459 L7.21556925,15.8919459 L7.81256925,15.9309459 C7.61756925,16.2299459 7.35256925,16.4989459 6.99756925,16.6229459 L6.99756925,16.6229459 Z M5.49756925,16.4009459 C5.21756925,16.4979459 4.88056925,16.4469459 4.49656925,16.2519459 L4.49256925,16.2489459 C3.36756925,15.4909459 3.07856925,14.0359459 3.05356925,13.8969459 C2.99856925,13.0729459 3.24956925,12.3909459 3.80056925,11.8579459 C3.93656925,11.8189459 4.55056925,11.6729459 5.14556925,11.9689459 C5.62756925,12.2079459 5.99056925,12.6809459 6.22356925,13.3749459 C6.22956925,13.3909459 6.74756925,14.9309459 6.04756925,15.8969459 L6.03256925,15.9159459 L6.02256925,15.9379459 C6.02156925,15.9419459 5.85956925,16.2769459 5.49756925,16.4009459 L5.49756925,16.4009459 Z M2.56656925,13.4079459 C2.36756925,13.1729459 2.15956925,12.7819459 2.17156925,12.1819459 L2.17156925,12.1779459 L2.16256925,10.9509459 L2.15156925,10.5309459 L2.09456925,10.4659459 C1.72256925,10.0309459 0.724569249,8.73794585 0.581569249,7.98694585 L0.576569249,7.96494585 C0.572569249,7.95294585 0.224569249,6.69294585 0.942569249,6.39194585 C0.977569249,6.40994585 1.06256925,6.46694585 1.19456925,6.62994585 L1.20556925,6.64494585 L1.21556925,6.65394585 C1.22156925,6.66094585 1.23356925,6.67094585 1.24856925,6.68594585 C1.36556925,6.81094585 1.79456925,7.32894585 1.67556925,8.12794585 L2.15956925,8.19994585 C2.19556925,7.96494585 2.19256925,7.74894585 2.16656925,7.55394585 C2.25056925,7.62994585 2.33956925,7.70894585 2.43156925,7.79094585 L2.22856925,8.84894585 L2.70956925,8.94194585 L2.85856925,8.16294585 C3.71556925,8.89594585 4.79056925,9.73294585 5.79856925,10.2819459 L5.85456925,10.3389459 C5.47956925,10.4169459 4.93256925,10.5689459 4.39056925,10.8499459 C3.27656925,11.4269459 2.65356925,12.3049459 2.56656925,13.4079459 L2.56656925,13.4079459 Z M1.07656925,5.22694585 C1.98656925,6.19094585 4.44056925,8.67394585 6.53956925,9.71494585 C6.42356925,9.81294585 6.30656925,9.90994585 6.20156925,9.99394585 L6.09756925,9.88694585 L6.06456925,9.86894585 C4.15056925,8.83794585 1.88656925,6.62894585 1.59056925,6.33594585 C1.58056925,6.32594585 1.57156925,6.31694585 1.56556925,6.31094585 C1.35256925,6.04994585 1.17756925,5.94194585 1.04356925,5.90694585 C1.03956925,5.76394585 1.04256925,5.52494585 1.07656925,5.22694585 L1.07656925,5.22694585 Z M1.48256925,3.69994585 C2.20256925,2.04394585 3.67956925,0.988945853 5.87256925,0.561945853 L5.88456925,0.559945853 C5.90156925,0.555945853 7.55556925,0.167945853 9.24956925,1.31194585 L9.26456925,1.32094585 C9.27156925,1.32594585 10.0335692,1.77294585 10.7895692,2.84194585 C11.0605692,3.22494585 11.3505692,3.71994585 11.6015692,4.33494585 C11.4195692,4.08894585 11.2825692,3.94194585 11.2665692,3.92494585 L11.0935692,3.74194585 L10.9155692,3.91994585 C9.94056925,4.89494585 7.82156925,5.07694585 6.62056925,5.09794585 C6.92056925,4.82994585 7.16856925,4.53094585 7.24656925,4.43294585 L8.04856925,3.42994585 L6.93356925,4.06694585 C5.72156925,4.75994585 3.50856925,4.36894585 3.48556925,4.36494585 L3.20856925,4.31394585 L3.19756925,4.59694585 C3.16756925,5.36594585 2.91556925,5.93794585 2.76056925,6.21994585 C1.99156925,5.48794585 1.40456925,4.86194585 1.18156925,4.61994585 C1.24756925,4.33294585 1.34256925,4.02094585 1.48256925,3.69994585 L1.48256925,3.69994585 Z M9.13656925,12.9609459 C9.05356925,13.0669459 8.92356925,13.2459459 8.78456925,13.4909459 C8.67756925,13.1269459 8.05856925,11.3219459 6.64156925,10.2389459 L6.53856925,10.3409459 L6.54456925,10.3469459 C6.66056925,10.2529459 6.81656925,10.1239459 6.97456925,9.98594585 C7.44356925,10.4299459 8.72356925,11.7229459 9.13656925,12.9609459 L9.13656925,12.9609459 Z M7.33356925,9.64994585 C7.42356925,9.55794585 7.50056925,9.47094585 7.55156925,9.39694585 C7.85456925,9.06994585 8.69956925,8.24094585 9.17456925,8.10494585 L9.18656925,8.10094585 C9.19656925,8.09694585 10.2365692,7.74994585 10.8445692,8.57494585 L10.8515692,8.58594585 L10.8685692,8.60194585 C10.8955692,8.62994585 11.5135692,9.28894585 10.9495692,10.9379459 L10.4075692,12.6859459 C10.2775692,12.6449459 10.1545692,12.6389459 10.0645692,12.6489459 C9.90556925,12.6529459 9.74356925,12.7059459 9.59156925,12.7789459 C9.13556925,11.4489459 7.84456925,10.1349459 7.33356925,9.64994585 L7.33356925,9.64994585 Z M12.2315692,6.98094585 C12.2665692,7.35794585 12.2825692,7.75794585 12.2775692,8.18094585 L11.4655692,8.64294585 C11.3705692,8.43594585 11.2695692,8.31494585 11.2295692,8.27094585 C10.5755692,7.39894585 9.51156925,7.47294585 9.03256925,7.63594585 C8.33456925,7.84094585 7.29456925,8.95294585 7.17856925,9.07894585 L7.16456925,9.09494585 L7.15256925,9.11294585 C7.11356925,9.17394585 7.03356925,9.26094585 6.93156925,9.35994585 C5.69256925,8.79194585 4.26256925,7.61694585 3.12756925,6.56494585 C3.28356925,6.30694585 3.58356925,5.71794585 3.66756925,4.88794585 C4.14856925,4.95194585 5.18756925,5.04794585 6.14556925,4.85694585 C5.97356925,4.99494585 5.82056925,5.08394585 5.72656925,5.08394585 L5.71056925,5.57294585 C5.86656925,5.58294585 9.40856925,5.79994585 11.0655692,4.44294585 C11.3815692,4.83694585 12.0785692,5.82294585 12.1965692,6.98494585 L12.2315692,6.98094585 Z M12.6725692,8.58694585 L12.0835692,9.11194585 C11.9605692,9.01494585 11.8465692,8.93794585 11.7535692,8.88094585 L12.5345692,8.43594585 C12.5835692,8.48594585 12.6295692,8.53694585 12.6725692,8.58694585 L12.6725692,8.58694585 Z M12.8825692,8.86794585 C13.1965692,9.34794585 13.2665692,9.79394585 13.2785692,10.0409459 C13.2325692,10.0479459 13.1855692,10.0569459 13.1375692,10.0689459 L13.1085692,10.0769459 L13.0815692,10.0909459 C13.0735692,10.0959459 13.0295692,10.1189459 12.9595692,10.1629459 C12.7845692,9.82594585 12.5645692,9.55494585 12.3485692,9.34494585 L12.8825692,8.86794585 Z M15.0205692,11.1509459 L15.0085692,11.1259459 C14.9835692,11.0789459 14.4705692,10.1439459 13.6275692,10.0369459 C13.6115692,9.65494585 13.4795692,8.89394585 12.7675692,8.17394585 C12.8005692,5.42694585 11.9295692,3.60594585 11.1895692,2.55894585 C10.4055692,1.45094585 9.61156925,0.957945853 9.51756925,0.901945853 C7.67756925,-0.336054147 5.91756925,0.0489458528 5.77356925,0.0829458528 C4.48356925,0.333945853 3.40656925,0.804945853 2.57156925,1.48194585 C1.89656925,2.02894585 1.37956925,2.70994585 1.03356925,3.50494585 C0.515569249,4.69494585 0.542569249,5.76894585 0.559569249,6.04194585 C0.279569249,6.22494585 0.0235692491,6.56694585 0.00156924912,7.21094585 C-0.0134307509,7.63594585 0.0835692491,8.01694585 0.102569249,8.08894585 C0.285569249,9.01394585 1.39856925,10.3939459 1.66656925,10.7169459 L1.67356925,10.9559459 L1.68156925,12.1749459 C1.65956925,13.3449459 2.31956925,13.9009459 2.59056925,14.0789459 C2.67656925,14.4879459 3.04856925,15.8639459 4.21556925,16.6529459 C4.22756925,16.6609459 4.24056925,16.6689459 4.25356925,16.6769459 C4.25356925,16.6779459 4.25456925,16.6779459 4.25456925,16.6779459 C4.79156925,17.0299459 5.41456925,17.2059459 6.11656925,17.2059459 C6.40756925,17.2059459 6.71256925,17.1759459 7.02956925,17.1149459 L7.29656925,17.5959459 L10.6525692,17.6209459 L11.4575692,16.2929459 L11.6285692,16.2909459 L11.6275692,16.2679459 C11.8645692,16.5739459 12.2125692,16.8909459 12.6335692,16.8909459 C12.6505692,16.8909459 12.6665692,16.8909459 12.6825692,16.8899459 C12.7195692,16.8939459 12.7825692,16.8979459 12.8625692,16.8979459 C13.0275692,16.8979459 13.2605692,16.8769459 13.4685692,16.7779459 C13.6025692,16.7209459 14.6275692,16.2199459 15.0855692,14.2279459 L15.0905692,14.2049459 C15.1015692,14.1159459 15.3745692,12.0269459 15.0205692,11.1509459 L15.0205692,11.1509459 Z"></path>
            </g>
        </g>
    </g>
</svg>