<?xml version="1.0" encoding="UTF-8"?>
<svg width="21px" height="18px" viewBox="0 0 21 18" version="1.1" xmlns="http://www.w3.org/2000/svg" xmlns:xlink="http://www.w3.org/1999/xlink">
    <title>8E547992-B320-4493-B07B-69155EE78AEA@2x</title>
    <g id="Collections" stroke="none" stroke-width="1" fill="none" fill-rule="evenodd">
        <g id="New-Saftey-Icons" transform="translate(-554.000000, -95.000000)" fill="#FFFFFF">
            <g id="Group" transform="translate(554.000000, 95.000000)">
                <g id="EWI-/-vent-small" transform="translate(0.000000, -0.000000)">
                    <g id="EWI-/-vent" transform="translate(0.437500, 0.498308)">
                        <g id="Page-1" transform="translate(0.000000, 0.166667)">
                            <g id="Group-3">
                                <path d="M0.930101746,8.85666193 C0.715803858,8.85606273 0.439507145,8.86816657 0.30339605,8.73706164 C0.142066962,8.58186887 -0.0341286302,8.18843425 0.0384419292,8.05792852 C0.171359479,7.81908746 0.478930909,7.55663792 0.719437892,7.54992688 C2.33349964,7.50510673 3.94910309,7.52392161 5.56415593,7.52392161 C9.03300665,7.52392161 12.5017472,7.52943425 15.9704878,7.52356209 C17.5062527,7.52104545 18.7422647,6.66533639 18.8423659,5.09387485 C18.9465415,3.45638148 17.9459708,2.10123108 16.4357543,1.83446731 C15.0018526,1.58136529 13.5144314,2.78240148 13.3391168,4.36117326 C13.284386,4.85467426 13.3657664,5.021663 13.2608199,5.49682849 C13.2035563,5.75628203 12.9164676,6.07361827 12.6798149,6.14000962 C12.3460344,6.23360463 12.0881281,5.93388487 12.0569635,5.54764064 C11.881759,3.37793796 12.4975626,1.71882173 14.5966027,0.778197797 C16.0781874,0.114284356 17.8039131,0.495135785 18.9137251,1.75369516 C20.0897205,3.08739421 20.4159026,4.67683175 19.8110011,6.39797342 C19.1964089,8.14715764 17.9532389,8.78787378 16.2363229,8.83700817 C13.6686025,8.91047008 11.0979089,8.85618257 8.52842652,8.85618257 C5.99561489,8.86121585 3.46291338,8.86373249 0.930101746,8.85666193 Z" id="Fill-1"></path>
                            </g>
                            <g id="Group-6" transform="translate(0.000000, 10.526316)">
                                <path d="M7.09899244,1.41042656 C5.07513233,1.40982456 3.0513913,1.41211214 1.02765028,1.40633299 C0.813283554,1.40573099 0.541395085,1.4299312 0.398960302,1.31386653 C0.212461248,1.16180255 0.0269149338,0.879828001 0.0305526104,0.657089783 C0.0339413989,0.465173719 0.272364839,0.229432405 0.464818526,0.104337805 C0.611540643,0.00898176815 0.849130435,0.0426934985 1.04646692,0.0425730994 C5.07417958,0.0393223254 9.10189225,0.0407671139 13.129724,0.0384795322 C14.4289055,0.0377571379 15.4586994,0.539459924 16.0479698,1.74056072 C16.5749546,2.81476092 16.4917089,3.8923323 15.7906106,4.8679257 C15.05962,5.88505676 14.0301834,6.30886137 12.8169868,6.079742 C11.6072439,5.85122463 10.8075369,5.08765394 10.4612155,3.87668043 C10.2992495,3.31056416 10.4569282,2.88784314 10.8814934,2.79790506 C11.4109792,2.68569315 11.609983,3.01679051 11.7442004,3.47623323 C12.0464575,4.51142415 12.9791909,5.01818369 13.9087089,4.68552116 C14.8208393,4.35899897 15.2847051,3.32320605 14.893724,2.43128999 C14.5784858,1.71226694 14.0035066,1.40392501 13.2298809,1.40765738 C11.1862514,1.4177709 9.14262193,1.41102855 7.09899244,1.41042656" id="Fill-4"></path>
                            </g>
                            <path d="M4.45850266,6.1370179 C3.29068492,6.1370179 2.12286717,6.1350743 0.955049426,6.1379897 C0.49312132,6.13920445 0.0339537396,6.13057971 0.00128750893,5.47109102 C-0.0222919885,4.99636606 0.277570206,4.77831813 0.936760938,4.77734633 C3.31069874,4.77345913 5.68475155,4.78305567 8.05857433,4.7682357 C8.91341738,4.76289079 9.57709397,4.11445634 9.66566086,3.26352278 C9.75468784,2.40554366 9.2254719,1.62336505 8.4138771,1.41345596 C7.59204534,1.20099589 6.7660728,1.70681849 6.50451291,2.63294518 C6.36694667,3.12018208 5.10193539,2.82645512 5.26986742,2.22636779 C5.69418335,0.709993255 7.11389914,-0.231074878 8.55443391,0.0492898118 C10.0778995,0.345810699 11.0621422,1.71860158 10.9474653,3.38754893 C10.8452108,4.87561975 9.60987522,6.09778142 8.13414374,6.12778579 C6.90939014,6.1526882 5.68371636,6.13288774 4.45850266,6.13288774 L4.45850266,6.1370179 Z" id="Fill-7"></path>
                        </g>
                    </g>
                </g>
            </g>
        </g>
    </g>
</svg>