<?xml version="1.0" encoding="UTF-8"?>
<svg width="19px" height="11px" viewBox="0 0 19 11" version="1.1" xmlns="http://www.w3.org/2000/svg" xmlns:xlink="http://www.w3.org/1999/xlink">
    <title>D42EE158-496E-4CD2-A2C6-BBA81ED8A210@2x</title>
    <defs>
        <polygon id="path-1" points="0 0.759782473 14.7202787 0.759782473 14.7202787 10.2702868 0 10.2702868"></polygon>
        <polygon id="path-3" points="0.515320256 0.768573992 16.0975124 0.768573992 16.0975124 9 0.515320256 9"></polygon>
    </defs>
    <g id="Collections" stroke="none" stroke-width="1" fill="none" fill-rule="evenodd">
        <g id="New-Saftey-Icons" transform="translate(-444.000000, -100.000000)">
            <g id="EWI-/-Boots" transform="translate(444.000000, 99.000000)">
                <g id="Group-3" transform="translate(0.000000, 0.240600)">
                    <mask id="mask-2" fill="white">
                        <use xlink:href="#path-1"></use>
                    </mask>
                    <g id="Clip-2"></g>
                    <path d="M14.7192,3.757 C14.6982,3.634 14.5852,3.358 13.9922,2.407 L13.9812,2.388 L13.9662,2.37 C13.4872,1.778 13.5472,1.196 13.5492,1.175 L13.5502,1.171 C13.5822,0.959 13.4222,0.766 13.2072,0.76 L13.1972,0.76 C12.9982,0.753 12.5822,0.915 11.9612,1.238 L11.9352,1.252 L11.9102,1.27 C10.6422,2.222 8.6802,2.097 8.6602,2.095 L8.6432,2.094 L8.6252,2.094 C8.2252,2.104 7.9222,2.021 7.7482,1.853 L7.4532,1.267 L7.2052,1.166 C7.1982,1.163 7.1912,1.161 7.1822,1.161 C7.0222,1.163 6.9482,1.259 6.9352,1.329 C6.8142,1.959 6.3082,2.567 6.3052,2.57 L6.2882,2.586 L6.2732,2.604 C5.7072,3.307 4.4772,4.711 4.4652,4.726 L4.4452,4.748 L4.4292,4.775 C3.6552,6.025 2.8142,6.293 2.7432,6.315 L2.7402,6.315 C2.3022,6.408 1.3412,6.904 1.2322,6.961 L1.2122,6.972 C0.2512,7.551 0.0282,8.377 0.0092,8.968 C-0.0008,9.255 0.0382,9.513 0.0822,9.711 C0.0282,9.754 -0.0058,9.822 0.0002,9.897 L0.0152,10.076 C0.0242,10.195 0.1302,10.282 0.2492,10.269 L2.5592,9.994 C2.5812,9.991 2.5992,9.972 2.5992,9.949 L2.5952,9.294 C2.5952,9.287 2.5882,9.282 2.5822,9.283 L0.8022,9.569 C0.6962,9.127 0.6152,8.197 1.5792,7.609 C1.5802,7.608 1.5822,7.607 1.5832,7.606 C1.9672,7.407 2.6522,7.081 2.8992,7.032 L2.9102,7.029 C2.9572,7.019 4.0612,6.744 5.0342,5.19 C5.0362,5.188 5.0372,5.186 5.0392,5.184 C5.2122,4.986 6.2872,3.756 6.8312,3.081 L6.8342,3.078 C6.8982,3.013 7.0862,2.807 7.2572,2.491 C7.2742,2.459 7.3162,2.451 7.3432,2.473 C7.6572,2.719 8.0862,2.839 8.6242,2.829 L8.6272,2.829 C8.8642,2.843 10.8912,2.931 12.3232,1.879 C12.3252,1.877 12.3272,1.875 12.3292,1.874 C12.4822,1.796 12.6392,1.72 12.7792,1.656 C12.8122,1.642 12.8512,1.661 12.8592,1.697 C12.9212,2.014 13.0642,2.414 13.3792,2.812 C13.3802,2.813 13.3812,2.815 13.3822,2.817 C13.6512,3.248 13.9592,3.778 13.9992,3.9 C14.0052,3.899 14.4902,3.832 14.4902,3.832 L14.6622,3.825 C14.6982,3.825 14.7262,3.792 14.7192,3.757" id="Fill-1" fill="#FFFFFF" mask="url(#mask-2)"></path>
                </g>
                <g id="Group-6" transform="translate(2.000000, 2.240600)">
                    <mask id="mask-4" fill="white">
                        <use xlink:href="#path-3"></use>
                    </mask>
                    <g id="Clip-5"></g>
                    <path d="M14.6039,6.8595 C14.6039,6.9635 14.5189,7.0495 14.4139,7.0495 L9.1749,7.0495 C9.1519,7.0495 9.1289,7.0535 9.1079,7.0615 L5.8329,8.2965 C5.8119,8.3045 5.7899,8.3085 5.7659,8.3085 L1.7599,8.3085 C1.6549,8.3085 1.5699,8.2235 1.5699,8.1185 L1.5699,8.1145 C1.5699,8.0085 1.6549,7.9235 1.7599,7.9235 L5.6969,7.9235 C5.7189,7.9235 5.7419,7.9205 5.7629,7.9125 L9.0379,6.6775 C9.0589,6.6695 9.0819,6.6655 9.1049,6.6655 L14.4139,6.6655 C14.5189,6.6655 14.6039,6.7505 14.6039,6.8555 L14.6039,6.8595 Z M1.3859,6.9015 C1.3859,6.9015 2.0849,5.8305 3.1689,6.0135 C3.1689,6.0135 3.3219,6.0525 3.2879,6.2275 C3.2519,6.4035 3.1389,6.3455 2.8759,6.4725 C2.6149,6.5995 2.1159,6.8925 1.8709,7.2865 C1.8709,7.2865 1.7009,7.5375 1.4579,7.3365 C1.4579,7.3365 1.2439,7.1875 1.3859,6.9015 L1.3859,6.9015 Z M4.5809,5.5185 C4.6449,5.4545 4.7329,5.4155 4.8309,5.4155 C4.9279,5.4155 5.0159,5.4545 5.0799,5.5185 C5.1429,5.5825 5.1829,5.6705 5.1829,5.7675 C5.1829,5.9625 5.0249,6.1205 4.8309,6.1205 C4.7329,6.1205 4.6449,6.0815 4.5809,6.0165 C4.5169,5.9535 4.4779,5.8645 4.4779,5.7675 C4.4779,5.6705 4.5169,5.5825 4.5809,5.5185 L4.5809,5.5185 Z M5.7989,4.8885 C5.8629,4.8255 5.9509,4.7855 6.0479,4.7855 C6.1449,4.7855 6.2339,4.8255 6.2969,4.8885 C6.3619,4.9535 6.4009,5.0415 6.4009,5.1375 C6.4009,5.3335 6.2439,5.4915 6.0479,5.4915 C5.9509,5.4915 5.8629,5.4515 5.7989,5.3875 C5.7349,5.3235 5.6959,5.2355 5.6959,5.1375 C5.6959,5.0415 5.7349,4.9535 5.7989,4.8885 L5.7989,4.8885 Z M6.8069,4.0035 C6.8719,3.9395 6.9589,3.8995 7.0569,3.8995 C7.1539,3.8995 7.2419,3.9395 7.3059,4.0035 C7.3699,4.0665 7.4099,4.1545 7.4099,4.2525 C7.4099,4.4475 7.2509,4.6045 7.0569,4.6045 C6.9589,4.6045 6.8719,4.5655 6.8069,4.5025 C6.7439,4.4375 6.7039,4.3495 6.7039,4.2525 C6.7039,4.1545 6.7439,4.0665 6.8069,4.0035 L6.8069,4.0035 Z M7.9319,2.8255 C7.9969,2.7615 8.0839,2.7225 8.1809,2.7225 C8.2789,2.7225 8.3669,2.7615 8.4309,2.8255 C8.4949,2.8895 8.5349,2.9775 8.5349,3.0755 C8.5349,3.2695 8.3759,3.4275 8.1809,3.4275 C8.0839,3.4275 7.9969,3.3885 7.9319,3.3245 C7.8689,3.2605 7.8289,3.1715 7.8289,3.0755 C7.8289,2.9775 7.8689,2.8895 7.9319,2.8255 L7.9319,2.8255 Z M16.0869,4.7395 C16.1099,4.0405 15.5159,3.0135 15.5159,3.0135 C15.3239,2.6625 15.2629,1.9865 15.2449,1.6325 C15.2379,1.5015 15.1259,1.3995 14.9949,1.4035 C14.8559,1.4075 14.6879,1.4165 14.5339,1.4265 C14.2549,1.4455 13.9809,1.5045 13.7199,1.6025 C11.6269,2.3925 9.8689,1.8315 9.8689,1.8315 C9.5069,1.8135 9.4899,1.3405 9.4899,1.3405 C9.4179,0.9325 9.1619,0.8075 8.9709,0.7725 C8.8569,0.7515 8.7439,0.8165 8.7039,0.9255 C8.2849,2.0705 6.8909,2.9315 6.8909,2.9315 C6.3189,3.3285 5.5269,4.2145 5.5269,4.2145 C4.7339,5.1465 3.7259,5.2575 3.7259,5.2575 C3.2309,5.3625 2.3159,5.6545 2.3159,5.6545 C1.3659,6.0615 0.9279,6.6855 0.9279,6.6855 C0.6369,7.0705 0.7129,8.1075 0.7129,8.1075 C0.5169,8.3055 0.4929,8.4745 0.5299,8.6025 C0.5779,8.7675 0.7349,8.8775 0.9059,8.8775 L7.4229,8.8655 C7.5439,8.8655 7.6649,8.8385 7.7729,8.7845 L10.4689,7.4635 C10.7809,7.2865 10.7569,7.6185 10.7569,7.6185 L10.7569,8.6055 C10.7569,9.0345 11.1679,8.9995 11.1679,8.9995 L15.0089,8.9995 C15.4519,8.9995 15.4929,8.5805 15.4929,8.5805 L15.4929,6.9955 C15.4929,6.8695 15.5319,6.7465 15.6039,6.6415 C16.2119,5.7615 16.0869,4.7395 16.0869,4.7395 L16.0869,4.7395 Z" id="Fill-4" fill="#FFFFFF" mask="url(#mask-4)"></path>
                </g>
            </g>
        </g>
    </g>
</svg>