<?xml version="1.0" encoding="UTF-8"?>
<svg width="14px" height="18px" viewBox="0 0 14 18" version="1.1" xmlns="http://www.w3.org/2000/svg" xmlns:xlink="http://www.w3.org/1999/xlink">
    <title>E9E8F4E8-E826-417D-BB7D-A80994AD7F18@2x</title>
    <defs>
        <polygon id="path-1" points="0 0.152006797 13.8696539 0.152006797 13.8696539 10.9994 0 10.9994"></polygon>
    </defs>
    <g id="Collections" stroke="none" stroke-width="1" fill="none" fill-rule="evenodd">
        <g id="New-Saftey-Icons" transform="translate(-291.000000, -97.000000)">
            <g id="EWI-/-Glasses" transform="translate(291.000000, 97.000000)">
                <g id="Group-3" transform="translate(0.000000, 6.863300)">
                    <mask id="mask-2" fill="white">
                        <use xlink:href="#path-1"></use>
                    </mask>
                    <g id="Clip-2"></g>
                    <path d="M13.8613,1.6849 C13.8273,1.0729 13.6913,0.5739 13.6003,0.3019 C13.5613,0.1829 13.4303,0.1229 13.3143,0.1659 C13.2153,0.2129 13.1663,0.3279 13.2013,0.4329 C13.2833,0.6809 13.4123,1.1519 13.4433,1.7229 C13.5043,2.8409 13.1783,3.7979 12.4763,4.5679 L12.4703,4.5729 C12.4313,4.6189 12.3803,4.6639 12.3353,4.6959 C12.3093,4.7139 12.2743,4.7009 12.2663,4.6699 C12.2573,4.6349 12.2503,4.5849 12.2453,4.5149 L12.2453,4.4469 C12.2463,4.3299 12.1513,4.2349 12.0343,4.2349 L12.0303,4.2349 C11.9133,4.2349 11.8173,4.3319 11.8203,4.4499 C11.8213,4.4719 11.8213,4.4949 11.8233,4.5169 C11.8073,5.3019 11.6333,7.6599 10.1723,9.1879 C9.4363,9.9569 8.4713,10.4149 7.2983,10.5549 C7.0563,10.5839 6.8133,10.5839 6.5723,10.5549 C5.3983,10.4149 4.4333,9.9569 3.6983,9.1879 C2.2363,7.6599 2.0623,5.3019 2.0473,4.5169 C2.0483,4.4959 2.0483,4.4739 2.0493,4.4529 C2.0533,4.3329 1.9593,4.2349 1.8403,4.2349 L1.8363,4.2349 C1.7183,4.2349 1.6243,4.3299 1.6253,4.4469 C1.6253,4.4679 1.6253,4.4909 1.6263,4.5149 C1.6203,4.5849 1.6123,4.6349 1.6033,4.6699 C1.5953,4.7009 1.5603,4.7139 1.5353,4.6959 C1.4903,4.6639 1.4383,4.6189 1.3993,4.5729 L1.3943,4.5679 C0.6923,3.7979 0.3673,2.8409 0.4263,1.7229 C0.4583,1.1519 0.5873,0.6809 0.6693,0.4329 C0.7043,0.3279 0.6553,0.2129 0.5553,0.1659 C0.4393,0.1229 0.3083,0.1829 0.2693,0.3019 C0.1793,0.5739 0.0443,1.0729 0.0073,1.6849 C-0.0617,2.9079 0.3093,4.0009 1.0813,4.8479 C1.1173,4.8899 1.2293,5.0119 1.3743,5.0889 C1.5583,5.1869 1.6793,5.3729 1.7073,5.5809 C1.7283,5.7449 1.7563,5.9179 1.7913,6.1009 C1.9743,7.0679 2.4013,8.4389 3.3923,9.4769 C4.1933,10.3149 5.2353,10.8159 6.4973,10.9699 C6.5353,10.9739 6.5733,10.9789 6.6113,10.9829 C6.8263,11.0049 7.0443,11.0049 7.2583,10.9829 C7.2983,10.9789 7.3363,10.9739 7.3733,10.9699 C8.6343,10.8159 9.6763,10.3149 10.4773,9.4769 C11.4683,8.4389 11.8953,7.0679 12.0803,6.1009 C12.1143,5.9179 12.1413,5.7449 12.1633,5.5809 C12.1913,5.3729 12.3113,5.1869 12.4963,5.0889 C12.6403,5.0119 12.7533,4.8899 12.7893,4.8479 C13.5603,4.0009 13.9313,2.9079 13.8613,1.6849" id="Fill-1" fill="#FFFFFF" mask="url(#mask-2)"></path>
                </g>
                <path d="M7.5,8.6039 C7.946,8.6039 8.074,9.5849 8.074,9.5849 C8.163,10.2479 8.736,10.3879 8.736,10.3879 C8.902,10.4519 10.558,10.5409 10.558,10.5409 C11.959,10.5409 12.252,8.9479 12.252,8.9479 C12.367,7.7759 12.979,7.6619 12.979,7.6619 L12.979,6.9729 L7.754,6.9479 C7.673,7.5879 7.171,7.4699 7.171,7.4699 L7.053,7.4699 L6.745,7.4699 C6.745,7.4699 6.243,7.5869 6.162,6.9479 L0.938,6.9729 L0.938,7.6609 C0.938,7.6609 1.549,7.7759 1.664,8.9479 C1.664,8.9479 1.956,10.5409 3.357,10.5409 C3.357,10.5409 5.014,10.4509 5.18,10.3869 C5.18,10.3869 5.753,10.2479 5.842,9.5839 C5.842,9.5839 5.97,8.6039 6.415,8.6039 L6.863,8.6039 L7.5,8.6039 Z" id="Fill-4" fill="#FFFFFF"></path>
                <path d="M1.1182,3.7631 C1.6792,1.8521 3.6912,1.1141 3.6912,1.1141 C6.1632,0.0691 8.7112,0.5781 8.7112,0.5781 C12.6852,1.3681 13.0422,3.9031 13.0422,3.9031 C13.1952,4.2731 13.1822,6.4701 13.1822,6.4701 C14.7682,2.4001 10.8502,0.8141 10.8502,0.8141 C7.5832,-0.6759 4.4692,0.3361 4.4692,0.3361 C-1.1308,2.0181 0.9722,6.4701 0.9722,6.4701 C0.8002,4.7701 1.1182,3.7631 1.1182,3.7631" id="Fill-6" fill="#FFFFFF"></path>
                <path d="M7.7744,3.7504 C7.6084,4.3234 6.5194,4.1714 6.5194,4.1714 C5.7044,4.1194 4.4944,4.1574 4.4944,4.1574 C1.9084,4.2604 1.4234,5.1394 1.4234,5.1394 C0.9144,5.9164 1.5004,6.5154 1.5004,6.5154 C1.3704,5.3364 2.5294,4.9504 2.5294,4.9504 C4.5354,4.2824 6.8764,4.6744 6.8764,4.6744 C6.7234,4.9794 6.4744,5.1134 6.4744,5.1134 C10.0674,5.3434 11.0034,3.9294 11.0034,3.9294 C10.9654,5.8584 12.1504,6.2404 12.1504,6.2404 C11.3474,5.5154 11.4884,2.5784 11.4884,2.5784 C11.2084,2.7824 11.0424,3.2024 11.0424,3.2024 C9.7684,4.6544 7.5264,4.6234 7.5264,4.6234 C8.0804,4.1574 7.7744,3.7504 7.7744,3.7504" id="Fill-8" fill="#FFFFFF"></path>
            </g>
        </g>
    </g>
</svg>