<?xml version="1.0" encoding="UTF-8"?>
<svg width="17px" height="22px" viewBox="0 0 17 22" version="1.1" xmlns="http://www.w3.org/2000/svg" xmlns:xlink="http://www.w3.org/1999/xlink">
    <title>AF783562-967F-4EEB-B4FF-A8CF0BB1F12B@2x</title>
    <defs>
        <polygon id="path-1" points="0 0.688147059 7.86567857 0.688147059 7.86567857 22 0 22"></polygon>
        <polygon id="path-3" points="0.1186875 0.688147059 7.7686875 0.688147059 7.7686875 22 0.1186875 22"></polygon>
    </defs>
    <g id="Collections" stroke="none" stroke-width="1" fill="none" fill-rule="evenodd">
        <g id="New-Saftey-Icons" transform="translate(-40.000000, -92.000000)">
            <g id="Vest" transform="translate(40.000000, 92.000000)">
                <g id="Group-3">
                    <mask id="mask-2" fill="white">
                        <use xlink:href="#path-1"></use>
                    </mask>
                    <g id="Clip-2"></g>
                    <path d="M4.37689286,0.683229412 L1.91796429,1.5807 C1.91796429,1.5807 2.56596429,5.72381765 -0.00289285714,9.09855294 L-0.00289285714,22.0012294 L7.85989286,21.9889353 L7.86567857,20.8763176 L0.38475,20.8763176 L0.38475,19.1858765 L7.84832143,19.1858765 L7.84832143,17.5753471 L0.378964286,17.5753471 L0.378964286,15.8972 L2.46182143,15.8972 L2.46182143,1.96796471 L4.04132143,1.33481765 L4.04132143,15.8664647 L7.84832143,15.8664647 L7.84832143,7.98593529 L4.37689286,0.683229412 Z" id="Fill-1" fill="#FFFFFF" mask="url(#mask-2)"></path>
                </g>
                <g id="Group-6" transform="translate(9.000000, 0.000000)">
                    <mask id="mask-4" fill="white">
                        <use xlink:href="#path-3"></use>
                    </mask>
                    <g id="Clip-5"></g>
                    <path d="M3.5105625,0.683229412 L5.9011875,1.5807 C5.9011875,1.5807 5.2711875,5.72381765 7.7686875,9.09855294 L7.7686875,22.0012294 L0.1243125,21.9889353 L0.1186875,20.8763176 L7.3918125,20.8763176 L7.3918125,19.1858765 L0.1411875,19.1858765 L0.1355625,17.5753471 L7.3974375,17.5753471 L7.3974375,15.8972 L5.3724375,15.8972 L5.3724375,1.96796471 L3.8424375,1.33481765 L3.8424375,15.8664647 L0.1355625,15.8664647 L0.1355625,7.98593529 L3.5105625,0.683229412 Z" id="Fill-4" fill="#FFFFFF" mask="url(#mask-4)"></path>
                </g>
            </g>
        </g>
    </g>
</svg>