<?xml version="1.0" encoding="UTF-8"?>
<svg width="15px" height="12px" viewBox="0 0 15 12" version="1.1" xmlns="http://www.w3.org/2000/svg" xmlns:xlink="http://www.w3.org/1999/xlink">
    <title>650AB4B0-B66C-4224-B30A-AA7FFE61C237@1x</title>
    <g id="Collections" stroke="none" stroke-width="1" fill="none" fill-rule="evenodd">
        <g id="New-Saftey-Icons" transform="translate(-507.000000, -97.000000)" fill="#FFFFFF">
            <g id="icons-/-safety-/-Ear-small" transform="translate(507.000000, 97.000000)">
                <path d="M11.7034447,4.04328089 C13.1388515,4.04328089 14.3024785,5.20690796 14.3024785,6.6423147 L14.3024785,11.8693678 L14.3024785,11.8693678 L9.10441091,11.8693678 L9.10441091,6.6423147 C9.10441091,5.20690796 10.268038,4.04328089 11.7034447,4.04328089 Z" id="Rectangle"></path>
                <path d="M4.60035911,1.33236705 C6.03950669,1.33499737 7.2055108,2.50100286 7.20813942,3.94015043 L7.21765754,9.15123542 L7.21765754,9.15123542 L2.01160583,9.14172037 L2.00208772,3.93063538 C1.99947148,2.49826764 3.15851408,1.33498328 4.59088182,1.33236704 C4.59404091,1.33236127 4.59720002,1.33236128 4.60035911,1.33236705 Z" id="Rectangle" transform="translate(4.607495, 5.239422) rotate(40.000000) translate(-4.607495, -5.239422) "></path>
            </g>
        </g>
    </g>
</svg>