<?xml version="1.0" encoding="UTF-8"?>
<svg width="21px" height="22px" viewBox="0 0 21 22" version="1.1" xmlns="http://www.w3.org/2000/svg" xmlns:xlink="http://www.w3.org/1999/xlink">
    <title>EE28CF1B-FC79-40C9-9835-A2716683EABB@2x</title>
    <g id="Collections" stroke="none" stroke-width="1" fill="none" fill-rule="evenodd">
        <g id="New-Saftey-Icons" transform="translate(-95.000000, -92.000000)" fill="#F0F0F0">
            <g id="Group" transform="translate(93.000000, 90.000000)">
                <g id="icons-/-safety-/-Helmet-Copy" transform="translate(2.000000, 2.000000)">
                    <path d="M5.03389831,14.5423729 L6.52542373,14.5423729 C9.50847458,17.2768362 11.9943503,17.2768362 13.9830508,14.5423729 C14.9774011,14.5423729 15.4745763,14.5423729 15.4745763,14.5423729 C15.4745763,19.5141243 15.4745763,22 15.4745763,22 L5.03389831,22 L5.03389831,14.5423729 Z" id="Path-8"></path>
                    <path d="M5.40677966,7.83050847 L15.1016949,7.83050847 C14.6363382,9.81722251 14.2634568,11.1844542 13.9830508,11.9322034 C12.8644068,14.9152542 12.1556088,15.2881356 11,15.2881356 C9.74737938,15.2881356 7.6440678,15.6610169 6.52542373,11.9322034 C6.3168136,11.2368363 5.94393224,9.86960466 5.40677966,7.83050847 Z" id="Path-7"></path>
                    <path d="M3.91525424,6.71186441 L3.91525424,4.84745763 L5.03389831,4.84745763 C5.53107345,2.85875706 6.52542373,1.49152542 8.01694915,0.745762712 L8.01694915,4.10169492 L8.76271186,4.10169492 L8.76271186,0 L11.7457627,0 L11.7457627,4.10169492 L12.8644068,4.10169492 L12.8644068,0.745762712 C15.1016949,2.73446328 15.9717514,4.10169492 15.4745763,4.84745763 L16.5932203,4.84745763 L16.5932203,6.71186441 L3.91525424,6.71186441 Z" id="Helmet"></path>
                    <path d="M3.54237288,15.2881356 L3.54237288,22 L0.186440678,22 C-0.0621468927,21.0056497 -0.0621468927,20.0112994 0.186440678,19.0169492 C0.801397288,16.5571227 3.54237288,15.2881356 3.54237288,15.2881356 Z" id="Path-9"></path>
                    <path d="M20.5084746,15.2881356 L20.5084746,22 L17.1525424,22 C16.9039548,21.0056497 16.9039548,20.0112994 17.1525424,19.0169492 C17.767499,16.5571227 20.5084746,15.2881356 20.5084746,15.2881356 Z" id="Path-9-Copy" transform="translate(18.737288, 18.644068) scale(-1, 1) translate(-18.737288, -18.644068) "></path>
                </g>
            </g>
        </g>
    </g>
</svg>