<?xml version="1.0" encoding="UTF-8"?>
<svg width="11px" height="18px" viewBox="0 0 11 18" version="1.1" xmlns="http://www.w3.org/2000/svg" xmlns:xlink="http://www.w3.org/1999/xlink">
    <title>2EA462BC-774D-4762-B569-E2FE305F0513@1x</title>
    <defs>
        <polygon id="path-1" points="0 0.0004 10.3339352 0.0004 10.3339352 17.5694 0 17.5694"></polygon>
    </defs>
    <g id="Collections" stroke="none" stroke-width="1" fill="none" fill-rule="evenodd">
        <g id="New-Saftey-Icons" transform="translate(-386.000000, -97.000000)">
            <g id="EWI-/-Overalls" transform="translate(386.000000, 97.000000)">
                <mask id="mask-2" fill="white">
                    <use xlink:href="#path-1"></use>
                </mask>
                <g id="Clip-2"></g>
                <path d="M10.3073,7.6126 C10.3273,7.6086 10.3383,7.5896 10.3323,7.5696 L8.2923,1.5866 C8.0573,0.7246 7.3763,0.7216 7.3763,0.7216 L6.3203,0.6926 C6.2713,0.6916 6.2293,0.6596 6.2133,0.6146 C5.9783,-0.0364 5.3463,0.0006 5.3463,0.0006 L5.3513,7.2046 C5.3533,7.4686 5.1503,7.4526 5.1503,7.4526 C4.9533,7.4616 4.9423,7.2296 4.9423,7.2296 L4.9293,0.0196 C4.4023,0.0136 4.1603,0.4646 4.0843,0.6426 C4.0663,0.6866 4.0233,0.7166 3.9753,0.7166 L2.8643,0.7166 C2.2243,0.7846 1.9613,1.6576 1.9613,1.6576 L0.0013,7.6116 C-0.0047,7.6286 0.0073,7.6456 0.0243,7.6476 L1.5243,7.8536 C1.5373,7.8556 1.5503,7.8476 1.5543,7.8356 L3.1773,3.3156 C3.1803,3.3076 3.1913,3.3096 3.1913,3.3176 L3.2253,7.5676 C3.2273,7.8436 3.2053,8.1196 3.1603,8.3906 L1.6333,17.4526 C1.6273,17.4876 1.6553,17.5206 1.6913,17.5206 L3.7813,17.5456 C3.8093,17.5456 3.8343,17.5246 3.8393,17.4966 L5.1363,9.8646 L6.4573,17.5146 C6.4623,17.5476 6.4913,17.5706 6.5233,17.5696314 L8.5993,17.5216 C8.6403,17.5206 8.6693,17.4846 8.6623,17.4456 L7.1213,8.2806 C7.0783,8.0236 7.0563,7.7636 7.0563,7.5036 L7.0503,3.2616 C7.0503,3.2536 7.0613,3.2516 7.0643,3.2586 L8.7543,7.8626 C8.7593,7.8776 8.7743,7.8856 8.7903,7.8836 L10.3073,7.6126 Z" id="Fill-1" fill="#FFFFFF" mask="url(#mask-2)"></path>
            </g>
        </g>
    </g>
</svg>