<?xml version="1.0" encoding="UTF-8"?>
<svg width="24px" height="19px" viewBox="0 0 24 19" version="1.1" xmlns="http://www.w3.org/2000/svg" xmlns:xlink="http://www.w3.org/1999/xlink">
    <title>E515D9A2-3294-4F17-A725-18DA6B9E7CC7@2x</title>
    <g id="Collections" stroke="none" stroke-width="1" fill="none" fill-rule="evenodd">
        <g id="New-Saftey-Icons" transform="translate(-226.000000, -97.000000)" fill="#F0F0F0" fill-rule="nonzero">
            <g id="Group" transform="translate(226.000000, 96.000000)">
                <g id="icons-/-safety-/-gloves" transform="translate(12.500000, 11.000000) scale(-1, 1) translate(-12.500000, -11.000000) translate(1.000000, 2.000000)">
                    <g id="Left" transform="translate(12.392857, 0.000000)">
                        <path d="M4.8015873,-0.5 C5.08680013,-0.5 5.43263779,-0.396604651 5.86395133,-0.196100522 L6.05410566,-0.104243074 L6.33049887,0.0339535272 L6.33,0.964 L6.4573465,0.928360172 L6.59951578,0.897056771 L6.73339218,0.878194085 L6.85941043,0.871882086 C7.18833661,0.871882086 7.49613744,1.00522461 7.7791447,1.24975678 L7.89890486,1.36129922 L8.04535147,1.50774583 L8.045,5.208 L8.62645691,4.33636447 L8.85021429,4.30609924 C9.56285057,4.2097087 9.95971504,4.2097087 10.2234952,4.38556215 C10.439377,4.52948331 10.583275,4.78129906 10.7133423,5.1700494 L10.8260659,5.53918619 L10.7324684,5.71869562 C9.65185023,7.79119961 8.98177742,9.46638161 8.72102104,10.7329126 C8.69444537,10.8619945 8.66826128,10.9996949 8.64247197,11.1460022 L8.56629153,11.6107329 L8.49249883,12.1270337 L8.42111299,12.6948337 L8.35215314,13.3140622 L8.28563839,13.9846481 L8.22158787,14.7065207 L8.13017431,15.885337 C8.12033006,16.0227096 8.11059047,16.1622119 8.10095595,16.3038422 L8.015611,17.6485261 L0.572304246,17.6485261 L-0.156338393,9.62945402 L-0.516521323,2.78597836 L-0.223606798,2.6395211 C0.297813081,2.37881116 0.702954041,2.24376417 1.02891156,2.24376417 C1.11040095,2.24376417 1.19683929,2.25220461 1.28880622,2.26893886 L1.4309755,2.30024226 L1.557,2.336 L1.55782313,1.1647753 L1.70426974,1.0183287 C2.0195252,0.70307323 2.36784853,0.528911565 2.74376417,0.528911565 C2.82525355,0.528911565 2.9116919,0.537352001 3.00365883,0.554086249 L3.14582811,0.585389651 L3.272,0.622 L3.27267574,0.0339535272 L3.54906894,-0.104243074 C4.07048882,-0.364953013 4.47562978,-0.5 4.8015873,-0.5 Z M4.8015873,0.5 C4.73591905,0.5 4.6328849,0.523400007 4.4971218,0.571373025 L4.38923524,0.611978556 L4.272,0.66 L4.27267574,2.18089908 L3.54906894,1.81909568 C3.15590076,1.62251159 2.87510068,1.52891156 2.74376417,1.52891156 C2.71121282,1.52891156 2.67424669,1.53762922 2.63251536,1.55718088 L2.56630066,1.5948984 L2.557,1.601 L2.55782313,3.89575169 L1.83421633,3.53394829 C1.44104815,3.3373642 1.16024807,3.24376417 1.02891156,3.24376417 C0.963243312,3.24376417 0.860209165,3.26716418 0.724446059,3.3151372 L0.616559501,3.35574273 L0.517,3.396 L0.840917125,9.55790673 L1.329,14.933 L7.19952962,14.9334536 L7.26807661,14.1292268 L7.3396829,13.3829329 L7.41437161,12.6944864 C7.42707788,12.5845611 7.43991355,12.4770426 7.4528791,12.371929 L7.53223481,11.7700927 L7.61473075,11.2258892 L7.70026977,10.7398644 L7.741564,10.5312597 C8.00653868,9.24423982 8.63992416,7.62173966 9.64070779,5.65442442 L9.749,5.443 L9.668,5.223 L9.65111347,5.22861224 L9.56504947,5.2382442 L9.205,5.27 L7.04535147,8.51079825 L7.045,1.944 L7.03687395,1.93786892 C7.00581785,1.9172591 6.9769575,1.90193468 6.95018906,1.8912686 L6.91159235,1.87868487 L6.85941043,1.87188209 C6.74449099,1.87188209 6.51513849,1.94354461 6.19620402,2.09315622 L5.33049887,2.5238696 L5.33,0.66 L5.21393936,0.611978556 C5.10006103,0.566728929 5.00394067,0.535466574 4.92753448,0.517696631 L4.85777214,0.504405829 L4.8015873,0.5 Z" id="Combined-Shape"></path>
                        <polygon id="Line" points="6.31604308 1.54336735 6.31604308 6.68792517 5.31604308 6.68792517 5.31604308 1.54336735"></polygon>
                        <polygon id="Line-Copy" points="4.42970522 1.54336735 4.42970522 6.68792517 3.42970522 6.68792517 3.42970522 1.54336735"></polygon>
                        <polygon id="Line-Copy-2" points="2.71485261 1.54336735 2.71485261 6.68792517 1.71485261 6.68792517 1.71485261 1.54336735"></polygon>
                    </g>
                    <g id="Right" transform="translate(5.855442, 8.574263) scale(-1, 1) translate(-5.855442, -8.574263) translate(0.710884, 0.000000)">
                        <path d="M4.8015873,-0.5 C5.08680013,-0.5 5.43263779,-0.396604651 5.86395133,-0.196100522 L6.05410566,-0.104243074 L6.33049887,0.0339535272 L6.33,0.964 L6.4573465,0.928360172 L6.59951578,0.897056771 L6.73339218,0.878194085 L6.85941043,0.871882086 C7.18833661,0.871882086 7.49613744,1.00522461 7.7791447,1.24975678 L7.89890486,1.36129922 L8.04535147,1.50774583 L8.045,5.208 L8.62645691,4.33636447 L8.85021429,4.30609924 C9.56285057,4.2097087 9.95971504,4.2097087 10.2234952,4.38556215 C10.439377,4.52948331 10.583275,4.78129906 10.7133423,5.1700494 L10.8260659,5.53918619 L10.7324684,5.71869562 C9.65185023,7.79119961 8.98177742,9.46638161 8.72102104,10.7329126 C8.69444537,10.8619945 8.66826128,10.9996949 8.64247197,11.1460022 L8.56629153,11.6107329 L8.49249883,12.1270337 L8.42111299,12.6948337 L8.35215314,13.3140622 L8.28563839,13.9846481 L8.22158787,14.7065207 L8.13017431,15.885337 C8.12033006,16.0227096 8.11059047,16.1622119 8.10095595,16.3038422 L8.015611,17.6485261 L0.572304246,17.6485261 L-0.156338393,9.62945402 L-0.516521323,2.78597836 L-0.223606798,2.6395211 C0.297813081,2.37881116 0.702954041,2.24376417 1.02891156,2.24376417 C1.11040095,2.24376417 1.19683929,2.25220461 1.28880622,2.26893886 L1.4309755,2.30024226 L1.557,2.336 L1.55782313,1.1647753 L1.70426974,1.0183287 C2.0195252,0.70307323 2.36784853,0.528911565 2.74376417,0.528911565 C2.82525355,0.528911565 2.9116919,0.537352001 3.00365883,0.554086249 L3.14582811,0.585389651 L3.272,0.622 L3.27267574,0.0339535272 L3.54906894,-0.104243074 C4.07048882,-0.364953013 4.47562978,-0.5 4.8015873,-0.5 Z M4.8015873,0.5 C4.73591905,0.5 4.6328849,0.523400007 4.4971218,0.571373025 L4.38923524,0.611978556 L4.272,0.66 L4.27267574,2.18089908 L3.54906894,1.81909568 C3.15590076,1.62251159 2.87510068,1.52891156 2.74376417,1.52891156 C2.71121282,1.52891156 2.67424669,1.53762922 2.63251536,1.55718088 L2.56630066,1.5948984 L2.557,1.601 L2.55782313,3.89575169 L1.83421633,3.53394829 C1.44104815,3.3373642 1.16024807,3.24376417 1.02891156,3.24376417 C0.963243312,3.24376417 0.860209165,3.26716418 0.724446059,3.3151372 L0.616559501,3.35574273 L0.517,3.396 L0.840917125,9.55790673 L1.329,14.933 L7.19952962,14.9334536 L7.26807661,14.1292268 L7.3396829,13.3829329 L7.41437161,12.6944864 C7.42707788,12.5845611 7.43991355,12.4770426 7.4528791,12.371929 L7.53223481,11.7700927 L7.61473075,11.2258892 L7.70026977,10.7398644 L7.741564,10.5312597 C8.00653868,9.24423982 8.63992416,7.62173966 9.64070779,5.65442442 L9.749,5.443 L9.668,5.223 L9.65111347,5.22861224 L9.56504947,5.2382442 L9.205,5.27 L7.04535147,8.51079825 L7.045,1.944 L7.03687395,1.93786892 C7.00581785,1.9172591 6.9769575,1.90193468 6.95018906,1.8912686 L6.91159235,1.87868487 L6.85941043,1.87188209 C6.74449099,1.87188209 6.51513849,1.94354461 6.19620402,2.09315622 L5.33049887,2.5238696 L5.33,0.66 L5.21393936,0.611978556 C5.10006103,0.566728929 5.00394067,0.535466574 4.92753448,0.517696631 L4.85777214,0.504405829 L4.8015873,0.5 Z" id="Combined-Shape"></path>
                        <polygon id="Line" points="6.31604308 1.54336735 6.31604308 6.68792517 5.31604308 6.68792517 5.31604308 1.54336735"></polygon>
                        <polygon id="Line-Copy" points="4.42970522 1.54336735 4.42970522 6.68792517 3.42970522 6.68792517 3.42970522 1.54336735"></polygon>
                        <polygon id="Line-Copy-2" points="2.71485261 1.54336735 2.71485261 6.68792517 1.71485261 6.68792517 1.71485261 1.54336735"></polygon>
                    </g>
                </g>
            </g>
        </g>
    </g>
</svg>