<?xml version="1.0" encoding="UTF-8"?>
<svg width="16px" height="16px" viewBox="0 0 16 16" version="1.1" xmlns="http://www.w3.org/2000/svg" xmlns:xlink="http://www.w3.org/1999/xlink">
    <title>1934C949-2C4C-421C-A4AD-AFBBB438F19A@1x</title>
    <g id="Collections" stroke="none" stroke-width="1" fill="none" fill-rule="evenodd">
        <g id="New-Saftey-Icons" transform="translate(-552.000000, -96.000000)" fill="#FFFFFF">
            <g id="icon-/-Info-Copy-2" transform="translate(552.000000, 96.000000)">
                <path d="M7.05406316,11.9313529 L8.77574737,11.9313529 L8.77574737,10.1894706 L7.05406316,10.1894706 L7.05406316,11.9313529 Z M8.94585263,4.18947059 L8.94585263,4.40688235 L8.44648421,9.21927451 L7.55385263,9.21927451 L7.05406316,4.40688235 L7.05406316,4.18947059 L8.94585263,4.18947059 Z" id="Fill-1"></path>
                <path d="M8,0.666666667 C12.0509333,0.666666667 15.3333333,3.94906667 15.3333333,8 C15.3333333,12.0509333 12.0509333,15.3333333 8,15.3333333 C3.94906667,15.3333333 0.666666667,12.0509333 0.666666667,8 C0.666666667,3.94906667 3.94906667,0.666666667 8,0.666666667 Z M8,2 C4.6862915,2 2,4.6862915 2,8 C2,11.3137085 4.6862915,14 8,14 C11.3137085,14 14,11.3137085 14,8 C14,4.6862915 11.3137085,2 8,2 Z" id="Combined-Shape"></path>
            </g>
        </g>
    </g>
</svg>